<svg xmlns="http://www.w3.org/2000/svg" width="2500" height="841" viewBox="0 0 2500 841" fill="none">
<g clip-path="url(#clip0)">
<path d="M1032.93 105.283C784.059 113.704 734.33 267.386 497.064 294.697C352.713 311.255 266.512 299.818 153.284 351.88C63.9538 393.018 0.284558 513.983 6.61381e-05 540.1C-0.0568322 550.114 0.113863 572.134 1.42253 578.791C3.01568 587.098 6.99856 587.496 10.5263 580.441C14.054 573.328 57.7519 458.28 166.883 409.859C277.038 360.984 388.161 373.957 508.387 358.253C719.252 330.714 800.219 175.837 1025.88 168.155C1109.97 165.31 1179.33 178.226 1243.63 197.515C1266.09 185.615 1287.24 171.389 1306.73 155.069C1212.28 121.612 1131.99 101.926 1032.93 105.283V105.283ZM1459.96 275.579C1556.74 308.011 1687.55 382.264 1879.86 384.426C1960.49 385.336 1995.25 373.274 1999.35 368.21C2007.83 357.57 2000.55 317.229 1999.35 311.653C1996.56 298.225 1985.75 314.498 1959.58 315.181C1944.73 315.579 1823.19 341.183 1644.48 280.586C1526.53 240.53 1436.23 203.546 1357.99 173.959C1340.98 189.208 1324.14 204.456 1306.78 218.681C1357.54 237.116 1406.87 257.827 1459.96 275.579V275.579Z" fill="white"/>
<path d="M2489.87 195.58L1815.17 196.604C1799.52 196.604 1788.37 188.013 1788.37 166.278C1788.37 159.165 1790.14 90.1476 1788.14 65.5675C1784.56 21.9834 1778.93 1.44308 1697.28 1.44308C1677.53 1.44308 1518.73 -10.9608 1438.33 45.4255C1389.63 79.6214 1348.55 121.214 1306.73 155.126C1286.24 171.74 1265.48 186.477 1243.63 197.572C1235.29 201.861 1226.68 205.586 1217.85 208.724C1093.3 252.536 995.095 223.176 867.358 255.267C816.605 268.012 734.671 326.845 707.36 401.154C704.686 408.38 703.605 414.298 704.515 447.356C704.8 457.597 712.083 462.547 715.667 454.411C719.195 446.331 743.263 377.427 833.504 332.079C909.975 293.616 1113.05 309.548 1210.34 276.49C1246.13 264.314 1277.2 243.09 1306.9 218.624C1324.25 204.4 1341.09 189.151 1358.11 173.902C1395.2 140.616 1433.21 107.615 1478.96 86.8475C1549.06 54.9275 1720.89 66.0227 1737.05 67.1038C1765.73 69.0383 1776.14 79.1093 1777.33 116.662C1777.45 144.468 1777.28 172.273 1776.82 200.075C1776.54 225.167 1784.16 262.208 1820.69 262.094C1836.91 262.038 2480.37 261.753 2489.99 261.241C2499.6 260.729 2500.11 243.034 2500.11 227.386C2500.11 211.739 2498.92 195.58 2489.87 195.58V195.58Z" fill="#FAFAFA"/>
<path d="M6.54346 836.313L87.7374 568.55H167.85C201.932 568.55 209.671 581.181 214.393 595.975C218.547 610.427 215.076 626.415 213.483 631.593C203.355 664.936 186.058 687.24 151.976 694.978L151.407 696.856C185.147 701.351 193.511 724.281 182.359 760.98C161.535 829.599 113.512 836.257 85.5753 836.257H6.54346V836.313V836.313ZM46.8844 806.613H91.2082C124.608 806.613 144.408 780.667 150.382 760.98C163.298 718.363 141.336 710.909 109.302 710.909H75.9026L46.8844 806.613V806.613ZM84.9494 681.265H130.639C155.276 680.924 172.175 664.594 180.027 638.649C186.797 616.344 180.709 598.194 154.422 598.194H110.155L84.9494 681.265V681.265ZM235.047 752.502C219.23 804.792 229.016 815.147 250.808 815.147C269.869 815.147 284.833 798.476 291.604 779.586H322.272C309.3 821.065 280.054 840.012 243.98 840.012C207.508 840.012 182.132 828.12 207.224 745.447C223.838 690.54 243.354 645.306 303.041 645.306C352.087 645.306 355.501 674.608 336.725 736.514L331.888 752.502H235.047V752.502ZM309.186 729.515C325.743 675.007 313.795 668.293 293.311 668.293C275.559 668.293 258.091 677.567 242.046 729.515H309.186Z" fill="white"/>
<path d="M450.066 702.431C471.573 631.593 492 564.055 576.892 564.055C629.352 564.055 640.96 595.576 621.5 653.044H571.032C581.785 617.425 580.078 604.111 564.773 604.111C535.812 604.111 523.066 633.755 502.242 702.431C481.417 770.994 476.182 800.695 505.143 800.695C528.984 800.695 538.087 767.352 545.2 746.186H596.01C574.275 817.764 541.103 840.751 493.024 840.751C408.132 840.751 428.843 772.53 450.066 702.431V702.431ZM731.542 801.435C728.014 812.928 725.795 824.82 723.349 836.313H678.683L684.202 811.449H683.52C667.474 830.737 650.632 840.012 629.865 840.012C596.465 840.012 592.425 812.928 602.326 780.268C621.102 718.363 665.881 715.746 710.262 716.485L714.643 702.033C719.479 686.102 720.902 674.608 703.548 674.608C686.877 674.608 681.301 688.321 676.806 703.171H629.808C636.635 680.583 647.56 666.073 661.329 657.539C674.928 648.663 691.656 645.306 710.034 645.306C771.029 645.306 770.233 673.869 759.877 708.008L731.542 801.435V801.435ZM650.063 778.049C646.024 791.364 643.065 807.693 658.769 807.693C687.047 807.693 695.241 766.215 701.386 745.788C677.204 746.926 660.191 744.707 650.063 778.049V778.049ZM854.784 649.004L847.501 673.129H848.184C863.546 651.621 881.81 645.306 901.27 645.306L887.102 692.019C845.737 689.06 836.975 715.746 831.342 734.295L800.446 836.256H752.367L809.151 648.947H854.784V649.004V649.004ZM986.39 702.431C1007.84 631.593 1028.32 564.055 1113.22 564.055C1165.73 564.055 1177.28 595.576 1157.82 653.044H1107.36C1118.17 617.425 1116.4 604.111 1101.1 604.111C1072.14 604.111 1059.39 633.755 1038.57 702.431C1017.8 770.994 1012.51 800.695 1041.52 800.695C1065.36 800.695 1074.47 767.352 1081.58 746.186H1132.28C1110.6 817.764 1077.37 840.751 1029.29 840.751C944.456 840.751 965.11 772.53 986.39 702.431V702.431ZM1273.78 801.435C1270.31 812.928 1268.04 824.82 1265.59 836.313H1220.92L1226.44 811.449H1225.76C1209.66 830.737 1192.87 840.012 1172.11 840.012C1138.71 840.012 1134.61 812.928 1144.51 780.268C1163.34 718.363 1208.07 715.746 1252.45 716.485L1256.83 702.033C1261.66 686.102 1263.09 674.608 1245.73 674.608C1229.06 674.608 1223.54 688.321 1219.05 703.171H1171.99C1178.88 680.583 1189.74 666.073 1203.57 657.539C1217.17 648.663 1233.84 645.306 1252.22 645.306C1313.21 645.306 1312.42 673.869 1302.06 708.008L1273.78 801.435V801.435ZM1192.25 778.049C1188.21 791.364 1185.31 807.693 1200.95 807.693C1229.23 807.693 1237.43 766.215 1243.63 745.788C1219.45 746.926 1202.38 744.707 1192.25 778.049V778.049ZM1397.03 649.004L1389.74 673.129H1390.42C1405.84 651.621 1424.05 645.306 1443.51 645.306L1429.34 692.019C1387.98 689.06 1379.22 715.746 1373.58 734.295L1342.69 836.256H1294.61L1351.39 648.947H1397.03V649.004V649.004ZM1469.68 751.023C1462.97 773.27 1453.53 806.669 1474.63 806.669C1491.7 806.669 1500.47 788.917 1505.19 773.327H1553.95C1547.07 793.696 1535.86 810.425 1520.78 821.918C1504.61 834.144 1484.77 840.541 1464.51 840.069C1402.49 840.069 1406.75 798.874 1424.56 740.326C1440.04 689.174 1460.18 645.419 1523.57 645.419C1588.32 645.419 1581.66 691.052 1561.69 751.08H1469.68V751.023ZM1522.54 721.72C1528.06 703.513 1536.65 677.567 1513.78 677.567C1491.65 677.567 1483.4 705.788 1478.56 721.72H1522.54Z" fill="#FAFAFA"/>
<path d="M1780.92 568.55H1820.8L1819.67 836.313H1784.56L1786.21 772.53H1691.13L1653.41 836.313H1621.66L1780.92 568.55ZM1790.48 600.071H1789.79L1707.97 742.829H1786.72L1790.48 600.071ZM1870.08 649.004H1901.09L1883.17 810.368H1883.85L1970.96 649.004H2010.5L1996.68 810.368H1997.36L2080.32 649.004H2110.02L2007.2 836.313H1969.71L1981.26 676.827H1980.57L1893.69 836.313H1856.25L1870.08 649.004ZM2167.94 809.23H2167.26C2152.18 830.737 2136.14 840.012 2114.63 840.012C2078.16 840.012 2075.37 814.408 2086.24 778.448C2103.42 721.72 2155.37 719.103 2194.23 720.241C2202.48 695.376 2210.96 668.293 2181.03 668.293C2162.25 668.293 2148.25 682.005 2143.99 701.635H2113.66C2127.77 659.758 2152.58 645.306 2189.05 645.306C2233.32 645.306 2237.41 670.17 2227.86 701.635L2200.54 791.762C2196.21 806.354 2192.84 821.218 2190.47 836.257H2159.75L2167.94 809.23V809.23ZM2113.55 780.667C2108.03 798.817 2111.21 815.147 2130.05 815.147C2147.06 815.147 2171.64 803.654 2187.29 743.228C2160.6 743.569 2125.55 741.009 2113.55 780.667ZM2298.35 677.226H2299.04C2319.29 648.663 2334.6 645.306 2361.85 645.306L2352.29 676.827L2345.12 675.689C2342.72 675.223 2340.28 674.975 2337.84 674.95C2306.83 674.95 2291.24 700.497 2283.56 725.76L2250.05 836.257H2222.11L2278.95 648.947H2306.89L2298.35 677.226V677.226ZM2365.78 752.502C2349.9 804.792 2359.75 815.147 2381.48 815.147C2400.6 815.147 2415.56 798.476 2422.28 779.586H2452.95C2439.97 821.065 2410.78 840.012 2374.65 840.012C2338.18 840.012 2312.8 828.12 2337.9 745.447C2354.57 690.54 2374.08 645.306 2433.71 645.306C2482.82 645.306 2486.17 674.608 2467.4 736.514L2462.56 752.502H2365.78V752.502ZM2439.86 729.515C2456.42 675.007 2444.47 668.293 2423.98 668.293C2406.23 668.293 2388.76 677.567 2372.72 729.515H2439.86V729.515Z" fill="white"/>
</g>
<defs>
<clipPath id="clip0">
<rect width="2500" height="841" fill="white"/>
</clipPath>
</defs>
</svg>