<svg xmlns="http://www.w3.org/2000/svg" width="2500" height="746" viewBox="0 0 2500 746" fill="none">
<g clip-path="url(#clip0)">
<path d="M0 0.109375H31.0174V744.526H0V0.109375ZM57.6037 0.109375H97.4832V744.526H57.6037V0.109375ZM115.207 0.109375H163.949V744.526H115.207V0.109375ZM190.535 0.109375H381.071V744.526H190.535V0.109375ZM425.381 279.303H682.382V465.407H425.381V279.303ZM1515.42 514.112H1838.89L1914.21 744.563H1431.23L1515.42 514.112Z" fill="white"/>
<path d="M1821.16 0.107491V181.781H2073.73C2134.33 183.996 2134.33 278.156 2078.16 279.264H1759.13L1666.08 0.107491H1457.82L1236.26 553.989H1121.06C1054.22 555.097 935.137 516.325 934.952 367.885C935.137 222.768 1076.38 183.996 1129.92 181.781H1222.97V0.107491H1045.73C932.367 -1.55415 721.892 106.453 722.261 367.885C721.892 549.558 896.365 746.186 1085.61 744.524H1395.78L1550.87 310.281L1608.47 465.368H2033.85C2087.21 466.476 2123.21 516.325 2122.47 549.558V744.524H2313.01V478.661C2314.3 436.012 2269.99 391.702 2242.11 385.609C2289.38 375.085 2347.53 261.613 2348.46 181.781C2347.57 98.1815 2267.22 -1.51723 2157.92 0.107491H1821.16V0.107491ZM2430.21 745.891C2468.8 745.891 2500 714.467 2500 675.732C2500 637.33 2468.8 605.943 2430.21 605.943C2391.44 605.943 2360.05 637.33 2360.05 675.732C2360.05 694.339 2367.44 712.184 2380.6 725.342C2393.76 738.499 2411.6 745.891 2430.21 745.891ZM2430.21 736.659C2396.05 736.659 2371.09 710.036 2371.09 675.732C2371.09 641.761 2396.05 615.175 2430.21 615.175C2464.18 615.175 2488.92 641.761 2488.92 675.732C2488.92 710.036 2464.18 736.659 2430.21 736.659ZM2441.47 678.834C2455.32 678.465 2466.03 672.741 2466.03 657.417C2466.03 644.493 2459.01 636.739 2438.33 636.739H2404.18V714.799H2413.78V678.797H2431.32L2453.66 714.799H2465.11L2441.47 678.834V678.834ZM2413.78 671.264V643.57H2436.12C2445.72 643.57 2455.65 645.047 2455.65 657.233C2455.65 673.111 2439.44 671.264 2428.36 671.264H2413.78Z" fill="white"/>
</g>
<defs>
<clipPath id="clip0">
<rect width="2500" height="746" fill="white"/>
</clipPath>
</defs>
</svg>