<svg xmlns="http://www.w3.org/2000/svg" width="2435" height="1367" viewBox="0 0 2435 1367" fill="none">
<path d="M1083.34 746.155C1236.56 746.155 1361.53 621.061 1361.53 467.694C1361.53 314.327 1236.56 189.246 1083.34 189.246C930.114 189.246 805.163 314.327 805.163 467.707C805.163 621.074 930.114 746.155 1083.34 746.155V746.155ZM1084.96 595.602C1156.23 595.602 1214.35 537.432 1214.35 466.086C1214.35 394.752 1156.23 336.57 1084.96 336.57C1013.69 336.57 955.574 394.752 955.574 466.086C955.574 537.419 1013.69 595.602 1084.96 595.602Z" stroke="white" stroke-width="14.7077" stroke-miterlimit="2.613"/>
<path fill-rule="evenodd" clip-rule="evenodd" d="M1083.34 746.155C1236.56 746.155 1361.53 621.061 1361.53 467.694C1361.53 314.327 1236.56 189.246 1083.34 189.246C930.114 189.246 805.163 314.327 805.163 467.707C805.163 621.074 930.114 746.155 1083.34 746.155V746.155ZM1084.96 595.602C1156.23 595.602 1214.35 537.432 1214.35 466.086C1214.35 394.752 1156.23 336.57 1084.96 336.57C1013.69 336.57 955.574 394.752 955.574 466.086C955.574 537.419 1013.69 595.602 1084.96 595.602Z" fill="white"/>
<path d="M7.75635 7.92871H239.63V7.95464L370.469 487.174L510.737 9.93901V7.92871H743.648V728.879H594.859V190.024L436.459 728.879H299.42L154.937 199.661V728.879H7.75635V7.92871ZM1714.82 741.291C1867.14 741.291 1991.36 616.95 1991.36 464.451C1991.36 311.966 1867.14 187.625 1714.82 187.625C1665.03 187.579 1616.15 201.092 1573.45 226.716V7.92871H1423.03V728.879H1573.45V688.167C1614.84 712.978 1663.23 741.291 1714.82 741.291V741.291ZM1573.45 438.46V490.845C1585.68 552.659 1640.33 599.493 1705.59 599.493C1779.82 599.493 1840.33 538.924 1840.33 464.659C1840.33 390.368 1779.82 329.799 1705.59 329.799C1640.33 329.799 1585.68 376.659 1573.45 438.46V438.46ZM2424.31 728.879H2275.51V7.92871H2424.31V728.879V728.879ZM2197.77 728.879H2047.37V197.184H2197.77V728.879V728.879ZM2047.38 145.525H2197.78V7.92871H2047.38V145.525V145.525Z" stroke="white" stroke-width="14.7077" stroke-miterlimit="2.613"/>
<path fill-rule="evenodd" clip-rule="evenodd" d="M7.75635 7.92871H239.63V7.95464L370.469 487.174L510.737 9.93901V7.92871H743.648V728.879H594.859V190.024L436.459 728.879H299.42L154.937 199.661V728.879H7.75635V7.92871ZM1714.82 741.291C1867.14 741.291 1991.37 616.95 1991.37 464.451C1991.37 311.966 1867.14 187.625 1714.82 187.625C1665.03 187.579 1616.15 201.092 1573.45 226.716V7.92871H1423.03V728.879H1573.45V688.167C1614.84 712.978 1663.23 741.291 1714.82 741.291V741.291ZM1573.45 438.46V490.845C1585.68 552.659 1640.33 599.493 1705.59 599.493C1779.82 599.493 1840.33 538.924 1840.33 464.659C1840.33 390.368 1779.82 329.799 1705.59 329.799C1640.33 329.799 1585.68 376.659 1573.45 438.46V438.46ZM2424.31 728.879H2275.51V7.92871H2424.31V728.879V728.879ZM2197.77 728.879H2047.37V197.184H2197.77V728.879V728.879ZM2047.38 145.525H2197.78V7.92871H2047.38V145.525V145.525ZM344.711 1200.38C297.267 1143.41 241.549 1062.1 212.497 1009.29C270.589 996.821 301.418 960.597 301.418 906.591C301.418 872.779 288.383 844.271 264.661 827.657C242.133 811.042 213.081 804.506 165.637 804.506C150.229 804.506 131.838 805.115 112.28 805.699C87.3777 806.892 68.9996 807.476 60.686 807.476C42.3078 807.476 31.05 806.892 9.1052 804.506C13.2555 899.47 14.4358 955.863 14.4358 1026.48C14.4358 1070.41 11.4657 1172.5 9.1052 1206.44C43.488 1204.03 54.1622 1203.35 69.5832 1203.35C86.7682 1203.35 97.4552 1204.04 117.014 1206.44C112.863 1091.76 111.073 1034.21 111.073 1033.02V1021.72C158.517 1086.44 174.522 1113.15 221.355 1206.44C246.257 1204.03 259.902 1203.35 278.28 1203.35C294.881 1203.35 307.345 1204.04 341.144 1206.44L344.711 1200.38V1200.38ZM111.099 982.555V913.698C111.099 902.428 111.099 895.891 111.696 874.529C112.293 855.529 112.293 855.529 112.293 849.602C124.16 847.825 130.671 847.215 140.748 847.215C164.47 847.215 177.505 852.559 186.998 865.023C195.896 877.487 200.63 895.878 200.63 916.642C200.63 938.016 195.896 957.017 186.998 970.065C176.908 984.915 160.307 991.439 132.448 991.439C124.744 991.439 120.58 990.829 111.099 989.636V982.555V982.555ZM386.227 1003.93C408.159 974.241 426.537 961.777 449.675 961.777C474.577 961.777 494.732 980.778 494.732 1005.12C494.732 1022.9 485.251 1030.63 452.632 1038.93C418.833 1048.43 396.888 1056.16 385.047 1062.67C363.102 1076.33 351.248 1099.48 351.248 1130.33C351.248 1180.21 384.45 1211.16 438.404 1211.16C469.83 1211.16 488.805 1201.56 503.629 1179.01C516.067 1200.97 533.862 1211.16 558.764 1211.16C577.142 1211.16 593.147 1206.43 615.675 1193.83L620.422 1170.1C613.898 1172.48 610.941 1173.08 605.598 1173.08C586.026 1173.08 581.876 1162.98 581.876 1115.51C581.876 1084.63 581.876 1065.04 582.473 1057.93C583.056 1023.51 583.056 1022.32 583.056 1012.81C583.056 983.151 580.086 968.301 570.605 954.073C555.197 932.699 521.982 918.458 484.642 918.458C445.512 918.458 412.893 929.729 375.54 957.043C378.51 980.194 379.094 987.898 379.094 996.212V1001.56L386.227 1003.93V1003.93ZM494.732 1103.64C494.732 1116.69 494.136 1132.72 493.539 1136.87C490.582 1151.11 481.101 1160.02 467.457 1160.02C449.662 1160.02 439.598 1146.36 439.598 1123.21C439.598 1095.91 447.898 1081.67 469.83 1072.16L487.028 1063.85C489.998 1062.66 492.372 1061.49 494.732 1059.7V1103.64ZM860.583 1019.36C865.914 989.675 873.631 962.387 884.305 941.012C858.21 926.188 825.007 918.471 786.474 918.471C693.377 918.471 631.706 977.211 631.706 1066.26C631.706 1152.32 692.197 1211.19 779.354 1211.19C810.779 1211.19 836.875 1205.84 859.403 1194.47C864.734 1177.24 869.48 1163.61 876.601 1147.58L867.691 1141.63C844.579 1160.05 829.754 1165.97 808.406 1165.97C797.315 1165.92 786.349 1163.63 776.162 1159.25C765.974 1154.87 756.773 1148.48 749.108 1140.46C733.103 1122.65 725.399 1098.31 725.399 1064.5C725.399 996.834 750.301 957.069 792.401 957.069C824.424 957.069 846.368 981.387 847.549 1019.39H860.583V1019.36V1019.36ZM908.014 923.815C911.58 996.212 912.761 1029.45 912.761 1068.03C912.761 1110.76 910.984 1157.06 908.014 1206.44C931.152 1204.03 942.409 1203.35 957.818 1203.35C973.239 1203.35 984.509 1204.04 1007.02 1206.44C1003.54 1160.38 1001.77 1114.21 1001.69 1068.03C1001.69 1029.44 1002.29 1015.21 1007.02 923.815C979.749 925.592 969.075 926.201 956.028 926.201C943.577 926.188 932.319 925.579 908.014 923.815ZM957.234 780.758C930.542 780.758 908.014 803.299 908.014 830.614C908.014 857.928 930.542 880.47 956.65 880.47C985.093 880.47 1007.63 858.512 1007.63 830.614C1007.63 802.716 985.093 780.758 957.234 780.758ZM1325.46 1037.75C1325.46 999.778 1323.07 983.164 1313.58 965.357C1298.75 935.669 1269.12 918.471 1232.36 918.471C1199.74 918.471 1174.24 930.935 1154.08 955.863C1154.08 938.639 1154.08 936.279 1154.67 923.815C1135.7 926.201 1125.62 926.785 1111.39 926.785C1103.09 926.785 1091.22 926.201 1059.22 923.815C1062.78 1002.14 1063.37 1029.45 1063.37 1065.07C1063.37 1101.27 1062.78 1129.18 1059.22 1206.44C1082.34 1204.03 1093.61 1203.35 1107.85 1203.35C1122.08 1203.35 1134.53 1204.04 1158.24 1206.44C1155.27 1127.37 1153.51 1078.1 1153.51 1058.53C1153.51 1022.92 1154.69 1008.68 1158.24 998.598C1164.76 981.984 1180.77 970.104 1197.38 970.104C1212.79 970.104 1225.24 979.598 1230.6 995.032C1233.54 1003.95 1234.72 1019.96 1234.72 1060.33C1234.72 1093.56 1231.78 1186.74 1229.99 1206.45C1253.11 1204.04 1264.97 1203.36 1278.6 1203.36C1291.65 1203.36 1303.5 1204.05 1329.01 1206.45C1326.65 1123.85 1325.47 1079.31 1325.47 1072.8V1037.75H1325.46V1037.75ZM1697.22 971.868V965.94C1696.61 950.519 1696.61 950.519 1696.61 947.549C1696.61 941.013 1696.61 937.472 1697.81 930.935C1681.22 932.712 1672.91 933.295 1656.32 933.295C1624.29 933.295 1609.48 932.128 1581.59 926.201C1549.59 919.664 1537.71 918.471 1515.78 918.471C1480.21 918.471 1452.93 924.398 1432.77 936.279C1404.91 952.893 1387.7 984.331 1387.7 1018.17C1387.7 1055.56 1407.28 1084.06 1442.26 1097.1V1101.86C1417.95 1115.52 1408.48 1130.33 1408.48 1152.91C1408.48 1171.89 1416.77 1186.14 1437.53 1200.38C1394.82 1209.98 1373.49 1234.32 1373.49 1272.3C1373.49 1331.07 1425.07 1366.07 1512.81 1366.07C1621.32 1366.07 1690.69 1311.45 1690.69 1225.98C1690.69 1195.63 1681.22 1172.48 1662.83 1157.63C1646.24 1144.59 1627.26 1141.02 1578.65 1140.44C1518.75 1140.44 1515.19 1140.44 1503.92 1138.05C1484.95 1134.51 1474.87 1126.17 1474.87 1114.31C1474.87 1110.16 1475.45 1107.78 1478.44 1103.63C1491.46 1105.4 1497.41 1106.01 1509.27 1106.01C1594.66 1106.01 1637.93 1074.55 1637.93 1013.4C1637.93 994.422 1634.96 983.151 1627.26 970.078L1697.22 971.868V971.868ZM1515.76 948.742C1537.11 948.742 1547.79 969.52 1547.79 1008.68C1547.79 1053.19 1534.16 1078.71 1509.84 1078.71C1487.32 1078.71 1477.81 1062.1 1477.81 1023.51C1477.83 974.825 1490.87 948.742 1515.76 948.742ZM1499.79 1215.91C1581.59 1215.91 1606.49 1227.79 1606.49 1265.76C1606.49 1308.5 1573.88 1338.19 1526.44 1338.19C1478.44 1338.19 1446.39 1309.11 1446.39 1265.76C1446.39 1243.22 1453.53 1230.76 1474.86 1216.52L1499.79 1215.91ZM2185.79 923.815C2189.36 996.212 2190.55 1029.45 2190.55 1068.03C2190.55 1110.76 2188.75 1157.06 2185.79 1206.44C2208.92 1204.03 2220.19 1203.35 2235.6 1203.35C2251.02 1203.35 2262.3 1204.04 2284.82 1206.44C2281.28 1158.26 2279.5 1112.56 2279.5 1068.03C2279.5 1029.44 2280.09 1015.21 2284.82 923.815C2257.53 925.592 2246.87 926.201 2233.82 926.201C2221.38 926.188 2210.11 925.579 2185.79 923.815V923.815ZM2235.02 780.758C2208.31 780.758 2185.79 803.299 2185.79 830.614C2185.79 857.928 2208.31 880.47 2234.43 880.47C2262.87 880.47 2285.43 858.512 2285.43 830.614C2285.43 802.716 2262.87 780.758 2235.02 780.758ZM2335.22 770.071C2339.95 900.041 2340.56 926.772 2340.56 988.508C2340.56 1046.66 2337.58 1167.14 2335.22 1206.44C2361.31 1204.03 2372.59 1203.35 2385.63 1203.35C2398.68 1203.35 2409.93 1204.04 2434.24 1206.44C2431.86 1167.74 2428.9 1045.48 2428.9 988.508C2428.9 928.548 2430.09 882.272 2434.24 770.071C2408.15 772.457 2396.88 773.054 2384.44 773.054C2371.98 773.067 2361.31 772.457 2335.22 770.071V770.071Z" fill="white"/>
<path d="M2002.47 1211.52C2083.27 1211.52 2149.18 1145.56 2149.18 1064.65C2149.18 983.774 2083.27 917.81 2002.47 917.81C1921.67 917.81 1855.75 983.774 1855.75 1064.65C1855.74 1145.56 1921.65 1211.52 2002.47 1211.52ZM2003.3 1132.11C2021.39 1132.07 2038.74 1124.86 2051.53 1112.06C2064.32 1099.26 2071.52 1081.91 2071.54 1063.81C2071.54 1026.17 2040.9 995.485 2003.3 995.485C1965.74 995.485 1935.08 1026.16 1935.08 1063.81C1935.09 1101.44 1965.74 1132.11 2003.3 1132.11Z" stroke="white" stroke-width="14.7077" stroke-miterlimit="2.613"/>
<path fill-rule="evenodd" clip-rule="evenodd" d="M2002.47 1211.52C2083.27 1211.52 2149.18 1145.56 2149.18 1064.65C2149.18 983.774 2083.27 917.81 2002.47 917.81C1921.67 917.81 1855.75 983.774 1855.75 1064.65C1855.74 1145.56 1921.65 1211.52 2002.47 1211.52ZM2003.3 1132.11C2021.39 1132.07 2038.74 1124.86 2051.53 1112.06C2064.32 1099.26 2071.52 1081.91 2071.54 1063.81C2071.54 1026.17 2040.9 995.485 2003.3 995.485C1965.74 995.485 1935.08 1026.16 1935.08 1063.81C1935.09 1101.44 1965.74 1132.11 2003.3 1132.11Z" fill="white"/>
</svg>