<svg xmlns="http://www.w3.org/2000/svg" width="2280" height="296" viewBox="0 0 2280 296" fill="none">
<path fill-rule="evenodd" clip-rule="evenodd" d="M366.25 208.932C404.186 193.602 431.527 155.691 431.527 111.374C431.527 52.465 383.448 5.79976 325.486 5.33285H52.1351C15.3788 5.33285 0.294922 38.7949 0.294922 51.0513V295.648L87.7241 295.881L87.4777 216.014H260.922L331.374 295.881H442.836L366.25 208.932V208.932ZM311.349 139.181C328.326 138.714 341.05 125.757 341.05 109.96C341.05 93.9423 328.326 81.4524 311.349 81.4524H85.8305V138.947L311.349 139.181V139.181ZM2203.13 208.932C2241.06 193.602 2268.41 155.691 2268.41 111.374C2268.41 52.465 2220.33 5.79976 2162.34 5.33285H1889.02C1852.23 5.33285 1837.16 38.7949 1837.16 51.0513L1837.64 295.648L1924.58 295.881L1924.35 216.014H2097.79L2168.24 295.881H2279.71L2203.13 208.932V208.932ZM2148.2 139.181C2165.18 138.714 2177.89 125.757 2177.89 109.96C2177.89 93.9423 2165.18 81.4524 2148.2 81.4524H1922.7V138.947L2148.2 139.181V139.181ZM645.489 34.3203C679.418 -10.6848 746.809 -12.0985 785.225 35.0336L992.832 295.428H601.664L652.09 220.955H821.994L716.421 87.3537L564.194 295.661H454.613L645.489 34.3203V34.3203ZM1422.43 79.7923C1422.43 29.8328 1458.47 5.33285 1488.39 5.33285H1805.12L1805.35 84.9802H1513.37L1513.14 112.787L1793.08 113.021L1793.34 188.894H1513.14L1512.91 217.414L1805.34 217.648L1805.1 295.194H1496.86C1422.42 295.881 1422.64 235.559 1422.64 217.881L1422.43 79.7923V79.7923ZM1103.36 5.33285H1392.98V84.7338H1107.84C1076.97 84.9802 1047.03 114.668 1047.03 151.424C1047.03 188.181 1076.95 218.128 1113.96 218.348L1392.98 218.582V295.869H1103.59C1023.95 296.348 958.67 231.072 958.67 150.724C958.67 70.3762 1023.95 5.33285 1103.36 5.33285V5.33285Z" fill="white"/>
</svg>