<svg xmlns="http://www.w3.org/2000/svg" width="2464" height="698" viewBox="0 0 2464 698" fill="none">
<path fill-rule="evenodd" clip-rule="evenodd" d="M1339.65 303.269L1268.11 515.428H1427.22L1496.3 306.965L1511.08 467.323L1358.14 690.585H1518.51L1784.95 303.269H1339.65V303.269ZM1002.07 514.987H1159.97L1231.51 302.815H1073.63L1002.07 514.987V514.987ZM901.297 302.815L829.755 514.987H987.649L1059.19 302.815H901.297V302.815ZM589.244 514.987H747.138L818.679 302.815H660.785L589.244 514.987V514.987ZM488.469 302.815L416.928 514.987H574.822L646.363 302.815H488.469V302.815ZM316.153 302.815L244.612 514.987H402.493L474.047 302.815H316.153V302.815ZM0.37793 514.987H158.272L229.813 302.815H71.9321L0.37793 514.987V514.987ZM653.626 279.262L677.062 208.952C685.7 181.807 685.7 123.845 622.784 123.845C559.868 123.845 529.026 169.485 514.227 183.052L575.898 0.489495H418.017L324.272 279.262H653.626ZM894.449 279.573L946.25 125.388C858.678 125.388 845.099 171.029 832.764 183.363L843.867 141.419H714.351L668.71 279.573H894.449ZM1160.91 0.113281H1000.55L958.623 125.933H1118.98L1160.91 0.113281V0.113281ZM1066.92 279.625L1112.56 141.458H954.68L909.027 279.625H1066.92ZM1081.65 279.262H1296.28L1343.14 141.108H1248.17L1253.11 126.296H1359.21L1402.37 0.476433H1250.62C1166.76 0.476433 1147.02 78.1913 1140.86 100.396L1081.65 279.262V279.262ZM1356.64 141.121L1311 279.262H1630.48L1616.9 141.121H1550.3L1598.41 0.489495H1438.04L1391.16 141.121H1356.64ZM1897.17 141.458H1729.4L1635.04 279.625H1801.57L1897.17 141.458ZM344.998 169.486L402.972 0.489495H72.399L14.4242 169.486H116.496L79.7918 279.262H237.686L274.688 169.486H344.998ZM2390.5 596.982C2391.54 593.869 2402.17 563.027 2363.12 563.027C2336.6 563.027 2320.94 571.587 2312.68 599.083H2331.95C2336.92 583.545 2344.69 579.317 2357.13 579.045C2372.28 578.72 2377.29 583.234 2372.25 598.305C2369.92 605.231 2368.66 609.887 2363.59 612.987C2360.58 614.906 2331.93 621.261 2319.66 626.034C2298.71 634.166 2289.13 653.31 2287.47 658.316C2279.39 682.466 2284.48 697.303 2310.75 697.303C2323.31 697.303 2338.97 693.97 2347.4 682.258H2347.85C2346.23 692.789 2355.17 694.955 2364.92 694.67C2366.57 694.631 2367.98 693.957 2369.51 693.723L2374.14 679.846C2363.2 680.144 2366.27 673.374 2366.83 667.706L2390.5 596.982V596.982ZM2351.9 654.386C2344.7 675.916 2327.23 681.415 2320.14 681.415C2304.96 681.415 2302.07 672.803 2306.56 659.418C2309.57 650.326 2316.95 644.84 2327.05 640.768C2338.61 635.995 2348.68 634.335 2360.24 630.12L2351.9 654.386ZM1725.95 628.784H1706.32C1704.46 632.843 1702.87 636.916 1701.05 640.975C1692.13 660.586 1680.69 679.962 1657.23 679.962C1621.24 679.962 1639.85 625.658 1648.96 601.275C1656.86 577.605 1671.26 530.447 1705.38 530.123C1734.21 529.85 1732.65 548.293 1726 569.577H1745.67C1757.31 537.528 1743.49 512.276 1712.79 512.186C1662.35 512.043 1641.96 561.341 1628.43 601.755C1614.11 644.568 1598.19 697.9 1652.91 697.9C1669.95 697.9 1685.28 688.873 1698.83 675.955C1711.53 663.53 1715.3 654.373 1721.35 639.782C1723.01 636.189 1724.28 632.376 1725.95 628.784V628.784ZM1874.92 571.094L1874.02 564.441H1856.03L1812.81 693.71H1831.5L1858.45 613.116C1866.53 588.954 1881.6 585.166 1902.41 584.738L1911.12 561.769C1899.5 561.094 1889.32 562.651 1874.92 571.094V571.094ZM2259.76 667.317L2290.06 576.671H2311.85L2317.22 560.654H2295.18L2307.27 524.546H2288.8L2276.71 560.654H2258.48L2253.14 576.671H2271.37L2239.56 671.856C2232.81 691.947 2240.46 693.853 2251.7 693.632H2272.29L2277.66 677.602H2265.09C2254.68 677.589 2258.25 671.856 2259.76 667.317V667.317ZM2444.91 514.222L2384.92 693.594H2403.65L2463.61 514.222H2444.91V514.222ZM2096.15 628.952V628.9H2130.01C2139.47 597.812 2155.42 557.152 2112.79 557.152C2077.98 557.152 2056.66 599.018 2047.28 626.994C2029.37 680.559 2041.53 697.303 2066.41 697.303C2094.13 697.303 2114.67 675.54 2122.19 649.47H2104.66C2100.81 664.541 2090.25 681.285 2072.23 681.285C2045.97 681.285 2060.56 646.851 2066.07 628.913L2096.15 628.952V628.952ZM2107.69 573.001C2129.48 573.001 2120.31 597.63 2115.82 613.181L2096.16 613.363V613.181H2071.29C2077.28 597.397 2085.92 573.001 2107.69 573.001ZM2219.23 556.205C2207.61 555.53 2196.51 559.551 2183.36 571.068L2181.53 564.415H2162.28L2119.68 693.684H2138.39L2165.34 613.09C2173.42 588.941 2188.47 576.503 2209.3 576.075C2226.6 577.125 2219.93 594.544 2216.24 603.013L2186.29 693.671H2205L2235.35 603.013C2249.56 562.327 2229.19 556.776 2219.23 556.205V556.205Z" fill="white"/>
<path fill-rule="evenodd" clip-rule="evenodd" d="M2020.46 514.222H1974.77L1914.81 693.594H1934.47L1960.84 614.66H1995.18C2018.38 614.66 2020.35 629.977 2014.38 647.901C2010.37 659.859 2003.74 678.769 2005.26 693.581H2028.23C2023.49 693.581 2026.05 681.609 2026.48 678.263C2029.06 664.879 2031.74 651.559 2036.02 638.329C2039.52 627.577 2038.89 610.613 2026.37 606.203C2042.58 602.896 2055.4 586.476 2063.02 565.387C2076.51 527.996 2050.63 514.416 2020.46 514.222V514.222ZM2043.31 563.533C2034.01 595.075 2007.24 596.294 1997.94 596.528H1966.91L1988.49 531.951H2016.81C2029.81 531.951 2051.92 534.26 2043.31 563.533ZM1825.17 596.982C1826.21 593.869 1836.87 563.027 1797.79 563.027C1771.27 563.027 1755.62 571.587 1747.38 599.083H1766.65C1771.62 583.545 1779.39 579.317 1791.83 579.045C1806.98 578.72 1811.97 583.234 1806.92 598.305C1804.62 605.231 1803.33 609.887 1798.26 612.987C1795.25 614.906 1766.6 621.261 1754.36 626.034C1733.39 634.166 1723.81 653.309 1722.14 658.316C1714.06 682.465 1719.16 697.303 1745.45 697.303C1757.99 697.303 1773.67 693.97 1782.07 682.258H1782.55C1780.93 692.789 1789.84 694.955 1799.6 694.67C1801.24 694.631 1802.68 693.957 1804.19 693.723L1808.82 679.846C1797.87 680.144 1800.97 673.374 1801.5 667.706L1825.17 596.982V596.982ZM1786.57 654.386C1779.38 675.916 1761.93 681.415 1754.81 681.415C1739.66 681.415 1736.74 672.803 1741.23 659.418C1744.27 650.326 1751.62 644.84 1761.75 640.768C1773.31 635.995 1783.38 634.335 1794.91 630.12L1786.57 654.386V654.386ZM1322.7 648.679C1319.98 648.672 1317.28 649.202 1314.76 650.237C1312.25 651.272 1309.96 652.793 1308.03 654.713C1306.1 656.633 1304.57 658.914 1303.52 661.426C1302.47 663.938 1301.93 666.631 1301.92 669.353C1301.91 672.075 1302.44 674.771 1303.48 677.288C1304.51 679.806 1306.03 682.094 1307.95 684.024C1309.87 685.953 1312.15 687.485 1314.67 688.533C1317.18 689.581 1319.87 690.124 1322.59 690.131C1328.09 690.144 1333.37 687.974 1337.26 684.097C1341.16 680.22 1343.36 674.954 1343.37 669.457C1343.39 663.96 1341.21 658.683 1337.34 654.786C1333.46 650.89 1328.19 648.693 1322.7 648.679V648.679ZM1322.7 687.64C1320.25 687.733 1317.8 687.33 1315.51 686.456C1313.22 685.582 1311.13 684.254 1309.36 682.553C1307.59 680.852 1306.19 678.812 1305.23 676.555C1304.27 674.298 1303.77 671.871 1303.77 669.418C1303.77 666.965 1304.27 664.538 1305.23 662.281C1306.19 660.024 1307.59 657.984 1309.36 656.283C1311.13 654.581 1313.22 653.254 1315.51 652.38C1317.8 651.506 1320.25 651.103 1322.7 651.195C1327.51 651.195 1332.13 653.108 1335.54 656.514C1338.94 659.919 1340.86 664.537 1340.86 669.353C1340.86 679.495 1332.74 687.64 1322.7 687.64Z" fill="white"/>
<path fill-rule="evenodd" clip-rule="evenodd" d="M1333.33 663.932C1333.33 661.986 1332.48 659.911 1330.73 658.938C1329 657.914 1327.03 657.797 1325.07 657.797H1314.99V680.961H1317.81V670.274H1323.02L1329.64 680.961H1333.01L1326.02 670.274C1330.12 670.17 1333.33 668.497 1333.33 663.932ZM1322.17 668.03H1317.81V659.833H1324.45C1327.31 659.833 1330.45 660.274 1330.45 663.867C1330.45 668.575 1325.41 668.03 1322.17 668.03Z" fill="white"/>
</svg>