<svg xmlns="http://www.w3.org/2000/svg" width="2500" height="357" viewBox="0 0 2500 357" fill="none">
<path d="M371.667 288.371H334.519L320.037 341.889H500.111L513.963 288.371H470.519L513.963 110.186H543.556L541.037 139.778H603.37L628.556 45.9633H328.852L304.296 139.778H369.148L382.37 109.556H414.482L371.667 288.371ZM841.37 45.9633H980.519L794.778 341.889H678.296L661.926 99.4818H638L651.852 45.9633H806.111L792.259 99.4818H765.815L765.185 251.223L853.963 99.4818H824.37L841.37 45.9633ZM1198.37 133.482C1198.37 103.889 1207.81 77.4448 1219.78 50.3707C1167.52 40.9263 1110.85 37.1485 1059.22 50.3707C1030.26 57.9263 1000.04 76.1856 983.667 102C964.778 130.963 969.185 168.111 992.481 192.667C1004.44 204.63 1018.93 212.815 1034.04 219.741C1046 225.408 1066.78 234.223 1069.93 248.074C1078.74 283.334 1022.07 286.482 1000.04 279.556V251.852H940.852L918.185 334.334C971.074 347.556 1026.48 351.963 1080 340C1112.11 332.445 1141.07 316.074 1162.48 290.26C1180.11 268.223 1190.19 227.297 1171.3 203.371C1160.59 190.149 1148.63 180.074 1134.15 171.889C1120.3 163.704 1105.19 158.667 1092.59 149.223C1077.48 137.889 1077.48 120.26 1093.85 110.186C1106.44 102 1127.22 105.778 1141.07 108.297L1143.59 132.852H1198.37V133.482Z" fill="white"/>
<path d="M2010.59 45.3335C1986.04 35.889 1962.74 36.5187 1937.56 42.815C1913 49.1113 1895.37 62.9631 1875.85 78.0742C1856.33 93.1853 1835.56 108.296 1812.89 118.371C1789.59 128.445 1763.15 139.148 1737.96 129.074C1756.22 129.704 1773.22 125.926 1788.96 115.852C1800.93 108.296 1821.7 92.5557 1826.11 78.0742H1805.33C1820.44 61.7038 1839.33 49.1113 1860.11 41.5557L1850.04 29.5927C1877.74 10.7039 1907.96 1.88903 1941.33 0.629774C1957.07 0.000144741 1972.81 1.88903 1987.3 6.29644C2003.04 10.7038 2015 18.2594 2026.33 29.5927L2010.59 45.3335ZM1612.04 111.445C1603.22 111.445 1595.67 112.074 1586.85 114.593C1578.67 117.111 1571.11 120.259 1562.93 123.408C1547.81 129.704 1533.33 137.889 1518.85 145.445C1512.56 148.593 1505 152.371 1498.07 153.63C1490.52 154.889 1480.44 154.889 1473.52 151.741C1465.96 147.963 1459.67 144.185 1453.37 138.519C1447.07 132.852 1440.78 127.185 1434.48 122.778C1427.56 118.371 1420.63 115.222 1413.7 110.815C1416.85 110.815 1433.22 110.185 1428.81 103.259C1425.04 97.5927 1416.22 95.0742 1409.3 93.815C1393.56 90.6668 1377.81 90.6668 1362.07 90.6668C1375.3 79.3335 1389.78 73.6668 1407.41 73.6668C1423.78 73.6668 1437 81.2224 1450.85 89.4076C1457.78 93.815 1465.96 101.371 1472.89 105.778C1479.81 110.185 1487.37 112.704 1494.93 115.222C1509.41 120.259 1527.67 117.741 1542.15 112.704C1554.11 108.296 1564.81 103.259 1578.04 103.259C1590 101.371 1601.33 104.519 1612.04 111.445V111.445Z" fill="white"/>
<path d="M1488.63 238C1514.44 236.741 1535.85 211.555 1550.33 192.666C1566.07 172.518 1576.78 142.296 1601.33 130.963C1637.85 114.592 1676.26 128.444 1709.63 146.074C1741.11 161.815 1785.19 159.296 1816.67 145.444C1851.3 130.333 1877.74 104.518 1907.33 82.4813C1935.04 61.7035 1970.93 47.222 2013.74 58.5553L2032.63 35.8887L2036.41 73.0368L2103.15 140.407L2089.93 156.148H2047.11V145.444C2034.52 136.629 2021.3 130.333 2005.56 132.222C1989.19 134.111 1971.56 141.666 1974.07 161.185C1975.96 174.407 1994.85 186.37 2004.3 193.296C2017.52 202.111 2031.37 210.296 2045.22 219.111C2073.56 236.741 2100.63 256.259 2127.07 277.037C2151.63 296.555 2176.81 316.703 2195.7 341.259L2137.78 329.926C2148.48 322.37 2135.89 314.185 2128.96 308.518C2120.15 301.592 2111.33 295.926 2101.26 290.259C2081.74 279.555 2060.96 273.889 2039.56 268.852C1998.63 258.778 1945.74 252.481 1909.85 278.296C1908.59 278.926 1907.33 280.185 1906.07 280.815L1885.93 263.815C1821.07 285.852 1748.67 280.185 1688.85 247.444C1664.3 264.444 1635.96 268.222 1607.63 271.37C1580.56 274.518 1552.22 272.629 1524.52 270.111C1458.41 324.889 1368.37 357 1284 328.037L1340.67 313.555V326.148C1401.74 326.148 1452.74 283.333 1488.63 238V238Z" fill="white"/>
</svg>