<svg xmlns="http://www.w3.org/2000/svg" width="2500" height="868" viewBox="0 0 2500 868" fill="none">
<g clip-path="url(#clip0)">
<path d="M143.834 619.889C154.398 647.926 169.025 671.899 187.716 691.806C206.407 711.717 228.551 726.953 254.147 737.517C279.746 748.082 307.577 753.363 337.645 753.363C366.901 753.363 394.326 747.877 419.924 736.905C445.523 725.933 467.869 710.495 486.965 690.587C506.061 670.677 520.892 646.909 531.457 619.28C542.022 591.65 547.303 560.773 547.303 526.641V0.0605469H675.29V853.314H548.522V774.083C520.08 804.148 486.557 827.308 447.959 843.564C409.357 859.814 367.713 867.941 323.019 867.941C277.51 867.941 235.051 860.017 195.638 844.171C156.227 828.325 122.095 805.777 93.2485 776.521C64.4025 747.265 41.6467 712.124 24.9891 671.084C8.32879 630.047 0 584.338 0 533.953V0.0605469H127.988V526.641C127.988 560.773 133.269 591.853 143.834 619.889ZM895.906 0.0605469V310.888C924.348 282.447 957.261 259.898 994.641 243.238C1032.02 226.578 1072.65 218.249 1116.53 218.249C1162.04 218.249 1204.7 226.78 1244.52 243.845C1284.34 260.91 1318.87 284.07 1348.13 313.326C1377.39 342.582 1400.55 377.116 1417.61 416.934C1434.68 456.755 1443.21 499.011 1443.21 543.706C1443.21 588.398 1434.68 630.451 1417.61 669.862C1400.55 709.276 1377.39 743.61 1348.13 772.861C1318.87 802.117 1284.34 825.277 1244.52 842.342C1204.7 859.407 1162.04 867.938 1116.53 867.938C1072.65 867.938 1031.82 859.609 994.031 842.949C956.244 826.291 923.129 803.741 894.687 775.299V853.311H772.795V0.0605469H895.906ZM909.923 627.811C920.893 653.817 936.132 676.57 955.635 696.073C975.138 715.576 997.891 731.017 1023.89 742.394C1049.9 753.77 1077.93 759.459 1108 759.459C1137.26 759.459 1164.88 753.77 1190.89 742.394C1216.89 731.017 1239.44 715.579 1258.54 696.073C1277.64 676.573 1292.87 653.817 1304.25 627.811C1315.63 601.808 1321.31 573.774 1321.31 543.706C1321.31 513.638 1315.63 485.399 1304.25 458.988C1292.87 432.578 1277.64 409.622 1258.54 390.119C1239.44 370.619 1216.89 355.38 1190.89 344.411C1164.88 333.442 1137.26 327.953 1108 327.953C1078.75 327.953 1051.12 333.439 1025.12 344.411C999.113 355.383 976.36 370.619 956.854 390.119C937.353 409.622 921.912 432.578 910.536 458.988C899.159 485.399 893.471 513.638 893.471 543.706C893.468 573.774 898.954 601.808 909.923 627.811V627.811ZM1512.67 418.156C1528.92 379.15 1551.28 344.818 1579.71 315.158C1608.15 285.497 1641.88 262.134 1680.89 245.069C1719.89 228.005 1762.15 219.474 1807.66 219.474C1852.35 219.474 1893.79 227.6 1931.99 243.85C1970.18 260.103 2003.09 282.654 2030.72 311.503C2058.35 340.349 2079.89 374.481 2095.32 413.892C2110.76 453.305 2118.48 496.171 2118.48 542.492V582.717H1612.63C1616.69 607.909 1624.82 631.271 1637.01 652.803C1649.2 674.337 1664.43 693.028 1682.72 708.874C1701 724.722 1721.72 737.116 1744.88 746.051C1768.04 754.99 1792.62 759.461 1818.63 759.461C1892.58 759.461 1952.31 728.986 1997.81 668.039L2086.79 733.86C2055.91 775.305 2017.72 807.811 1972.22 831.376C1926.71 854.941 1875.51 866.724 1818.63 866.724C1772.31 866.724 1729.04 858.595 1688.81 842.345C1648.59 826.094 1613.65 803.339 1583.99 774.083C1554.33 744.827 1530.96 710.495 1513.9 671.084C1496.83 631.673 1488.3 588.805 1488.3 542.487C1488.29 498.607 1496.42 457.162 1512.67 418.156V418.156ZM1683.93 370.007C1649.4 398.855 1626.44 437.252 1615.07 485.197H1994.16C1983.59 437.252 1961.04 398.855 1926.5 370.007C1891.97 341.161 1851.54 326.736 1805.22 326.736C1758.9 326.736 1718.47 341.161 1683.93 370.007V370.007ZM2348.85 384.024C2322.85 412.465 2309.85 451.064 2309.85 499.823V853.317H2186.73V231.659H2308.63V308.452C2324.07 283.261 2344.18 263.351 2368.96 248.724C2393.75 234.095 2423.21 226.78 2457.34 226.78H2500V341.36H2448.81C2408.18 341.363 2374.86 355.582 2348.85 384.024Z" fill="white"/>
</g>
<defs>
<clipPath id="clip0">
<rect width="2500" height="868" fill="white"/>
</clipPath>
</defs>
</svg>