<svg xmlns="http://www.w3.org/2000/svg" width="1920" height="1088" viewBox="0 0 1920 1088" fill="none">
<rect width="1920" height="1088" fill="#1C1C1C"/>
<path fill-rule="evenodd" clip-rule="evenodd" d="M661.858 668.244H622.598V615.739H595.207V746.983H622.598V688.27H661.841L661.846 746.983H689.248V615.739H661.858V668.244V668.244ZM1315.41 615.739V635.77H1352.61V746.983H1380.01V635.77H1417.2V615.739H1315.41V615.739ZM1170.79 615.739H1143.39V746.983H1221.74V726.946H1170.77L1170.79 615.739V615.739ZM857.357 725.152C856.956 726.516 855.947 726.888 854.503 726.888C853.116 726.888 852.05 726.35 851.614 725.089L822.773 615.745H790.821L823.96 735.468C825.57 743.349 830.82 747 838.254 747H863.524C870.957 747 875.766 743.206 877.629 735.657L909.971 615.745H885.779L857.357 725.152V725.152ZM503.017 636.24L503 726.476C503 741.074 510.491 746.994 523.455 746.994L584.707 746.983V726.911H540.409C532.809 726.911 530.373 725.066 530.373 716.881L530.408 645.789C530.408 637.885 532.236 635.77 540.426 635.77H584.707V615.745H523.513C509.511 615.739 503.017 622.972 503.017 636.24V636.24ZM733.082 716.881L733.094 688.27H787.531V668.244H733.128L733.122 645.789C733.122 638.189 734.802 635.77 743.147 635.77H788.11V615.745L726.21 615.768C712.059 615.768 705.732 622.829 705.732 636.24L705.715 726.476C705.715 740.334 712.466 746.994 726.176 746.994L793.813 746.983V726.911H743.124C735.518 726.911 733.082 725.209 733.082 716.881V716.881ZM989.902 691.526C1002.57 691.526 1010.36 685.76 1010.36 671.007L1010.34 636.24C1010.34 622.536 1003.88 615.745 989.867 615.745H913.531V746.983H940.921V635.77H972.925C981.408 635.77 982.944 638.189 982.944 645.789L982.978 661.774C982.978 669.523 980.84 671.815 972.948 671.815L957.983 671.827C952.172 671.827 948.905 675.328 948.905 680.985C948.905 683.828 950.349 685.886 951.49 687.926L986.067 746.989H1019.96L983.752 691.577L989.902 691.526V691.526ZM1106.32 615.762H1045.97C1031.52 615.762 1025.5 623.115 1025.5 636.234L1025.48 726.47C1025.48 741.372 1033.41 746.989 1045.94 746.989H1106.33C1119.45 746.989 1126.81 740.776 1126.81 726.47L1126.79 636.234C1126.79 622.829 1120.47 615.762 1106.32 615.762V615.762ZM1089.4 726.911H1062.89C1054.99 726.911 1052.86 724.773 1052.86 716.881V645.789C1052.86 638.928 1053.8 635.77 1062.89 635.77H1089.42C1096.57 635.77 1099.41 637.002 1099.41 645.789L1099.43 716.881C1099.43 725.352 1096.85 726.911 1089.4 726.911ZM1254.43 716.881L1254.44 688.27H1308.88V668.244H1254.48V645.789C1254.48 638.189 1256.16 635.77 1264.49 635.77H1309.45V615.745L1247.56 615.768C1233.4 615.768 1227.07 622.829 1227.07 636.24L1227.06 726.476C1227.06 740.334 1233.81 746.994 1247.52 746.994L1315.16 746.983V726.911H1264.47C1256.87 726.911 1254.43 725.209 1254.43 716.881V716.881ZM1199.82 377.392L1053.93 377.409C1050.21 377.409 1047.77 376.297 1047.77 371.179V349.543C1047.77 343.301 1044.41 340 1038.31 340L871.313 340.006C865.071 340.006 861.862 343.519 861.862 349.486L861.85 371.122C861.85 375.69 859.695 377.352 855.683 377.352L760.083 377.38C752.77 377.38 748.488 380.871 746.282 385.456L699.737 476.442C699.119 477.635 698.793 478.957 698.785 480.3C698.785 483.905 701.147 488.553 707.663 488.553L855.672 488.536C860.24 488.536 861.839 490.61 861.839 494.766L861.827 516.402C861.827 522.918 865.616 525.887 871.301 525.887L954.808 525.882L1038.29 525.876C1043.98 525.876 1047.76 523.125 1047.76 516.459L1047.75 494.823C1047.75 490.398 1049.63 488.593 1053.92 488.593L1146.72 488.57C1153.13 488.57 1157.73 486.885 1160.94 480.924L1206.96 391.01C1207.97 389.067 1208.67 387.961 1208.67 385.651C1208.69 379.541 1203.42 377.392 1199.82 377.392V377.392ZM1163.05 413.637L1140.87 457.03C1139.48 459.546 1137 459.655 1135.27 459.655H1025.14C1020.57 459.655 1018.9 461.73 1018.9 465.879L1018.88 490.84C1018.88 494.989 1017.07 496.972 1012.63 496.972H954.82L896.967 496.984C893.098 496.984 890.731 495.625 890.731 490.777L890.719 465.816C890.719 461.254 888.627 459.626 884.484 459.626H749.468C746.15 459.626 743.857 457.534 743.857 454.634C743.857 453.797 744.069 453.001 744.436 452.307L766.623 408.915C767.471 407.373 768.864 406.318 772.217 406.318L884.484 406.324C888.358 406.324 890.765 404.765 890.765 400.06L890.76 375.105C890.76 370.675 892.691 368.898 896.978 368.898L1012.66 368.892C1016.81 368.892 1018.88 370.738 1018.88 375.162L1018.87 400.117C1018.87 404.404 1020.86 406.307 1025.15 406.307H1158.03C1162.26 406.307 1163.64 409.092 1163.64 411.299C1163.63 412.113 1163.43 412.914 1163.05 413.637V413.637Z" fill="white"/>
</svg>