<svg xmlns="http://www.w3.org/2000/svg" width="1920" height="1088" viewBox="0 0 1920 1088" fill="none">
<rect width="1920" height="1088" fill="#1C1C1C"/>
<path fill-rule="evenodd" clip-rule="evenodd" d="M936.692 606.516L769.461 624.498L802.475 656.707H1039.23L951.454 604.896L936.692 606.516V606.516ZM936.692 473.105L1167 411.632C1167 411.632 1200.56 409.217 1233.84 333.789L936.692 431.231L705.573 506.656C705.573 506.656 685.709 513.097 677.925 518.467C677.925 518.467 672.555 521.691 672.555 529.201C672.555 529.201 673.092 534.841 677.119 538.871L687.051 548.803L813.21 516.052C813.21 516.052 805.426 505.85 820.994 503.705L936.692 473.105V473.105ZM936.692 593.359C936.959 596.044 939.107 598.465 939.107 598.465L936.692 598.728L761.407 618.593L728.119 587.457L936.689 550.142L1114.92 518.467C1085.67 575.916 1026.61 575.916 1026.61 575.916L953.063 585.309C940.716 585.578 937.228 588.796 936.689 592.024L936.692 593.359V593.359ZM936.692 494.039L1179.62 432.573C1150.9 497.533 1093.19 499.678 1093.19 499.678L936.692 531.353L885.422 541.818C860.724 542.358 871.462 554.975 871.462 554.975L721.947 580.479L694.032 555.781L936.692 494.039V494.039ZM936.692 362.78L1276.26 224C1276.26 224 1264.71 258.094 1257.46 275.54C1257.46 275.54 1248.61 303.189 1213.18 314.194L936.692 411.906L696.983 496.191C696.983 496.191 666.117 507.199 661.014 520.086C661.014 520.086 653.767 534.844 673.365 551.492L789.056 656.714H743.694L650.549 565.447C650.549 565.447 629.612 548.267 628 523.839V518.74C628.27 517.131 628.27 515.523 628.806 513.641C628.806 513.641 632.833 486.794 673.095 470.424L936.692 362.78V362.78ZM689.736 673.89H629.612V688.656H643.298V733.481H629.612V748.783H689.736V733.481H674.974V719.255H719.266V733.481H704.771V748.783H764.095V733.481H749.87V688.656H764.095V673.89H704.501V688.656H719.266V703.414H674.974V688.656H689.736V673.89V673.89ZM1217.74 708.521H1229.28L1217.74 691.071L1216.39 689.462L1205.93 708.521H1217.74ZM1217.74 673.89H1241.63L1277.6 733.481H1292.36V748.783H1227.66V733.481H1242.16L1235.99 724.625H1196.8L1191.97 733.481H1206.19V748.783H1156.27V733.481H1171.57L1196.26 688.656H1179.62V673.89H1217.74V673.89ZM1102.58 732.675C1116.81 731.066 1125.13 725.697 1125.13 711.738C1125.13 695.634 1115.74 690.534 1102.58 689.188C1100.17 688.919 1097.75 688.919 1095.07 688.919H1080.04V733.211H1092.12C1095.87 733.211 1099.36 732.945 1102.58 732.675V732.675ZM1102.58 673.89H1112.24C1136.94 673.89 1155.47 685.431 1155.47 711.738C1155.47 742.068 1138.02 748.247 1102.58 748.783H1035.21V733.481H1049.7V688.656H1035.21V673.89H1102.58ZM827.173 736.166C841.133 735.896 852.137 724.895 852.137 711.468C852.137 697.242 840.863 686.507 827.173 686.507H826.903C813.214 686.507 802.209 697.242 802.209 711.205C802.209 724.355 812.678 736.166 826.637 736.166H827.173ZM827.173 670.13H827.979C863.142 670.13 886.228 683.287 886.228 710.399C886.228 735.36 865.021 752 827.173 752H826.101C789.326 752 767.313 737.774 767.313 710.935C767.313 685.165 789.056 670.13 827.173 670.13ZM950.382 673.89H891.061V688.656H905.286V733.481H891.061V748.783H938.304V733.481H923.539V695.097L965.147 748.779H1011.05V688.652H1026.08V673.887H977.221V688.652H992.522V728.108L950.382 673.89V673.89Z" fill="white"/>
</svg>