<svg xmlns="http://www.w3.org/2000/svg" width="1920" height="1088" viewBox="0 0 1920 1088" fill="none">
    <rect width="1920" height="1088" fill="#1C1C1C" />
    <path
        d="M1184.39 558.231C1196.98 529.137 1208.92 500.703 1208.92 500.042C1209.58 498.72 1210.9 497.397 1212.89 497.397H1222.17C1224.16 497.397 1225.49 498.72 1226.15 500.042C1229.46 507.977 1239.41 533.104 1250.01 558.231H1184.39ZM1267.25 486.817C1255.32 459.045 1259.96 462.352 1232.78 461.029H1200.96C1175.77 461.69 1179.75 459.707 1171.13 477.56C1171.13 477.56 1128.04 576.085 1109.48 616.42L1108.82 618.404C1105.5 625.016 1108.16 625.678 1113.46 625.678H1152.57C1155.22 625.678 1156.55 624.355 1157.21 623.033C1157.21 623.033 1162.51 610.469 1169.8 593.277H1264.6C1268.58 603.195 1273.22 613.114 1277.19 623.033C1277.86 625.016 1279.84 626.339 1281.83 626.339H1322.27C1328.24 626.339 1329.56 627 1327.57 621.71C1320.28 604.518 1273.88 502.687 1267.25 486.817V486.817ZM659.38 461.029H619.606C616.292 461.029 615.629 462.352 615.629 464.996V620.388C615.629 624.355 616.292 625.678 620.932 625.678H658.717C662.694 625.678 664.02 625.016 664.02 620.388V465.658C663.357 462.352 662.694 461.029 659.38 461.029V461.029ZM570.552 461.029H538.071C534.093 461.029 532.768 462.352 532.768 466.319V589.309C532.768 589.309 467.805 488.14 459.187 474.915C449.244 460.368 445.929 461.029 417.425 461.029H380.303C375.663 461.029 375 462.352 375 466.319V621.049C375 625.016 376.326 626.339 380.303 626.339H412.785C417.425 626.339 418.088 625.678 418.088 621.049V499.381C418.088 499.381 471.782 583.358 489.68 611.791C498.96 626.339 500.286 626.339 526.802 626.339H570.552C574.53 626.339 575.856 625.678 575.856 621.049V466.319C575.856 462.352 574.53 461.029 570.552 461.029ZM1539.7 461.029H1507.22C1503.24 461.029 1501.91 462.352 1501.91 466.319V589.309C1501.91 589.309 1436.95 488.14 1428.33 474.915C1418.39 459.707 1415.07 461.029 1386.57 461.029H1349.45C1344.81 461.029 1344.14 462.352 1344.14 466.319V621.049C1344.14 625.016 1344.81 626.339 1349.45 626.339H1381.93C1386.57 626.339 1387.23 625.678 1387.23 621.049V499.381C1387.23 499.381 1440.93 583.358 1458.82 611.791C1468.1 626.339 1469.43 626.339 1495.95 626.339H1539.7C1543.67 626.339 1545 625.678 1545 621.049V466.319C1545 462.352 1544.34 461.029 1539.7 461.029V461.029ZM829.079 524.508C813.17 523.185 770.745 519.218 756.824 517.896C751.521 517.234 750.195 514.589 749.533 511.283V507.316V504.01C750.195 499.381 752.184 497.397 757.487 497.397H873.493C877.47 497.397 878.796 496.736 878.796 492.107V465.658C878.796 461.69 877.47 461.029 873.493 461.029H756.161C725.669 461.029 708.433 472.27 703.793 495.413C702.467 500.703 702.467 506.655 702.467 511.283C702.467 516.573 703.13 522.524 703.13 526.492C705.119 539.716 713.074 554.925 748.207 558.892C776.048 561.537 816.484 564.844 829.742 566.166C835.708 566.827 837.034 571.456 837.034 574.101V584.681C837.034 588.648 835.045 589.971 830.405 589.971H708.433C704.456 589.971 703.13 590.632 703.13 595.261V621.71C703.13 625.678 704.456 627 708.433 627H829.742C859.572 627 879.459 621.71 884.762 595.922C886.088 590.632 886.088 583.358 886.088 578.068C886.088 570.133 885.425 563.521 884.762 560.876C879.459 532.443 858.909 527.153 829.079 524.508V524.508ZM1041.87 524.508C1025.96 523.185 983.533 519.218 969.612 517.896C964.309 517.234 962.983 514.589 962.32 511.283V507.316V504.01C962.983 499.381 964.972 497.397 970.275 497.397H1086.28C1090.26 497.397 1091.58 496.736 1091.58 492.107V465.658C1091.58 461.69 1090.26 461.029 1086.28 461.029H968.949C938.456 461.029 921.221 472.27 916.581 495.413C915.255 500.703 915.255 506.655 915.255 511.283C915.255 516.573 915.918 522.524 915.918 526.492C917.907 539.716 925.861 554.925 960.994 558.892C988.836 561.537 1029.27 564.844 1042.53 566.166C1048.5 566.827 1049.82 571.456 1049.82 574.101V584.681C1049.82 588.648 1047.83 589.971 1043.19 589.971H921.221C916.581 589.971 915.918 590.632 915.918 595.261V621.71C915.918 625.678 917.244 627 921.221 627H1042.53C1072.36 627 1092.25 621.71 1097.55 595.922C1098.88 590.632 1098.88 583.358 1098.88 578.068C1098.88 570.133 1098.21 563.521 1097.55 560.876C1091.58 532.443 1071.03 527.153 1041.87 524.508Z"
        fill="white" />
</svg>