<svg xmlns="http://www.w3.org/2000/svg" width="1920" height="1088" viewBox="0 0 1920 1088" fill="none">
<rect width="1920" height="1088" fill="#1C1C1C"/>
<path fill-rule="evenodd" clip-rule="evenodd" d="M520.221 628.71C504.985 619.165 493.755 586.227 493.755 547.082C493.755 545.646 493.761 544.228 493.797 542.816L493.809 542.834C451.422 536.173 420.799 517.925 420.011 496.338L419.89 496.593C409.521 509.483 403.599 524.386 403.599 540.264C403.599 586.99 454.889 625.274 519.948 628.662L520.221 628.71V628.71ZM384 543.67C384 491.393 449.065 449 529.323 449C609.588 449 674.653 491.393 674.653 543.67C674.653 595.954 609.588 638.347 529.323 638.347C449.065 638.347 384 595.954 384 543.67V543.67ZM529.33 462.66C544.826 462.66 558.008 486.169 562.892 518.968L562.904 518.913C593.055 514.223 614.158 503.399 614.158 490.799C614.158 473.896 576.177 460.206 529.33 460.206C482.488 460.206 444.507 473.896 444.507 490.799C444.507 503.399 465.61 514.216 495.755 518.913L495.773 518.968C500.658 486.169 513.839 462.66 529.33 462.66ZM538.711 628.656C603.77 625.268 655.066 586.984 655.066 540.258C655.066 524.38 649.138 509.477 638.775 496.587L638.648 496.332C637.866 517.919 607.243 536.167 564.85 542.828L564.868 542.81C564.898 544.222 564.91 545.64 564.91 547.076C564.91 586.221 553.674 619.159 538.444 628.704L538.711 628.656V628.656ZM529.33 521.398C536.056 521.406 542.779 521.119 549.481 520.537L549.474 520.544C546.262 499.526 538.457 484.684 529.336 484.684C520.215 484.684 512.415 499.526 509.197 520.544L509.191 520.537C515.888 521.116 522.607 521.403 529.33 521.398V521.398ZM529.33 599.251C540.996 599.251 550.517 574.972 551.02 544.531L551.08 544.549C536.612 545.882 522.053 545.882 507.585 544.549L507.645 544.531C508.148 574.972 517.663 599.251 529.33 599.251V599.251ZM1125.57 543.67C1125.57 503.714 1157.97 471.315 1197.92 471.315C1237.9 471.315 1270.29 503.714 1270.29 543.67C1270.29 583.639 1237.89 616.026 1197.92 616.026C1157.97 616.026 1125.57 583.639 1125.57 543.67V543.67ZM1197.92 589.493C1220.24 589.493 1238.34 568.973 1238.34 543.664C1238.34 518.362 1220.24 497.841 1197.92 497.841C1175.61 497.841 1157.53 518.362 1157.53 543.664C1157.53 568.979 1175.62 589.493 1197.92 589.493V589.493ZM1352.4 501.459V612.741H1321.9V501.459H1322.01H1279.38V476.302H1394.92V501.459H1352.4ZM1431.81 582.045L1431.78 582.075L1420.09 612.747H1384.47L1440.77 476.302H1478.72L1535 612.747H1499.39L1487.7 582.075L1487.66 582.045H1431.81V582.045ZM1459.74 559.015H1478.93L1478.92 559.021L1459.87 509.083H1459.61L1440.56 559.021L1440.55 559.015H1459.74V559.015ZM790.395 501.459V612.741H759.905V501.459H760.014H717.373V476.302H832.928V501.459H790.395ZM840.727 543.67C840.727 503.714 873.127 471.315 913.095 471.315C953.058 471.315 985.457 503.714 985.457 543.67C985.457 583.639 953.058 616.026 913.095 616.026C873.127 616.026 840.727 583.639 840.727 543.67V543.67ZM913.095 589.493C935.404 589.493 953.5 568.973 953.5 543.664C953.5 518.362 935.404 497.841 913.095 497.841C890.781 497.841 872.69 518.362 872.69 543.664C872.69 568.979 890.781 589.493 913.095 589.493V589.493ZM1055.5 612.741H1070.96V560.936L1124.16 476.302H1088.55L1055.5 533.652L1022.47 476.302H986.863L1040.05 560.936V612.741H1055.5Z" fill="white"/>
</svg>