<svg xmlns="http://www.w3.org/2000/svg" width="1104" height="480" viewBox="0 0 1104 480" fill="none">
<path d="M768.967 108.9C794.098 108.9 814.342 129.144 814.342 154.275C815.04 176.613 796.89 198.253 771.061 198.253C746.629 198.253 726.385 178.707 726.385 152.879C725.687 127.05 746.629 108.9 768.967 108.9Z" fill="white"/>
<path d="M364.088 108.9C388.521 108.9 408.067 127.748 408.067 153.577C408.067 178.707 388.521 198.253 364.088 198.253C339.656 198.253 320.808 179.406 320.11 153.577C320.808 128.446 339.656 108.9 364.088 108.9Z" fill="white"/>
<path d="M240.528 130.539C239.132 132.633 239.132 134.728 240.528 136.822C242.623 141.01 244.019 144.501 245.415 148.689C246.113 149.387 246.113 150.783 246.811 151.481C248.905 152.878 249.603 155.67 250.301 157.764C250.999 158.462 250.999 159.16 251.698 159.858C262.169 167.537 274.734 167.537 287.299 170.329C293.582 171.725 299.166 171.725 305.449 172.424C306.845 172.424 307.543 164.745 306.845 161.254C306.845 159.16 307.543 157.764 307.543 155.67C307.543 154.972 307.543 154.274 307.543 154.274C308.241 122.162 332.674 97.0318 363.389 97.0318C385.727 97.0318 404.575 109.597 413.65 128.445C413.65 128.445 413.65 128.445 413.65 129.143C414.348 129.841 414.348 131.237 415.046 131.935C421.329 147.293 420.631 162.651 419.235 164.047C417.838 169.631 416.442 175.914 415.744 180.102C415.046 182.895 417.14 184.989 419.933 184.989C427.611 184.291 442.969 182.895 459.025 181.498C544.887 181.498 630.052 180.8 716.613 180.8C718.009 178.706 717.311 179.404 718.707 177.31C715.915 171.725 713.821 160.556 713.821 154.274C714.519 122.162 738.951 97.0318 769.666 97.0318C800.381 97.0318 825.512 121.464 825.512 153.576C825.512 161.254 824.116 167.537 822.72 171.027C822.021 173.122 823.418 174.518 824.814 174.518C831.096 174.518 838.077 174.518 844.36 172.424C847.152 171.725 849.944 171.725 852.737 171.027C856.227 170.329 856.925 168.933 856.925 165.443C856.925 164.745 856.925 164.047 856.925 164.047C859.717 157.764 860.415 151.481 861.113 145.199C861.113 143.803 861.114 142.406 861.812 141.01C865.302 138.916 865.302 138.916 865.302 135.426C865.302 131.935 866 129.143 866 125.653C866 122.86 864.604 120.766 862.51 119.37C859.717 117.974 856.227 116.578 853.435 115.182C853.435 115.182 853.435 114.484 853.435 113.786C853.435 110.993 853.435 107.503 853.435 104.711C854.133 94.9377 849.246 89.3531 841.568 85.1646C837.379 83.0704 833.191 81.6743 829.002 80.2782C819.927 78.1839 789.212 69.8071 782.231 68.4109C771.062 66.3167 759.195 64.9206 747.328 63.5244C734.763 62.1283 722.895 61.4302 710.33 60.0341C705.444 59.336 700.557 59.336 694.973 60.0341C691.482 60.0341 688.69 59.336 685.898 57.9399C662.163 43.9785 597.941 14.6595 590.96 11.1691C579.093 5.58456 565.829 3.49033 553.264 1.39612C544.887 -2.13242e-05 536.51 0 528.134 0C499.513 0 470.892 -1.60192e-05 442.271 2.79227C430.404 4.18841 418.537 5.58455 406.669 8.37683C394.104 11.1691 381.539 17.4518 369.672 21.6402C353.616 27.9228 338.258 35.6016 322.203 42.5823C313.826 48.1669 293.582 53.0534 273.338 53.0534C267.753 53.0534 262.867 53.0534 257.282 53.0534C255.886 53.0534 254.49 53.0534 253.094 53.7514C251.698 54.4495 250.301 55.1476 250.999 57.2418C253.792 68.4109 252.396 79.5801 250.301 90.7492C249.603 94.9377 249.603 99.1261 249.603 104.013C249.603 104.711 249.603 105.409 249.603 106.107C248.207 106.805 246.113 106.805 244.717 107.503C240.528 108.899 238.434 113.087 239.132 117.276C239.83 120.766 240.528 124.257 241.226 127.747C241.226 127.747 241.226 129.143 240.528 130.539ZM488.344 11.1691C501.607 9.77298 521.153 9.77299 535.812 10.4711C549.774 11.1691 563.037 13.2633 576.301 17.4518C588.168 21.6402 635.637 46.7707 635.637 46.7707C637.033 47.4688 637.731 48.1669 639.127 48.865C638.429 48.865 637.731 48.865 637.033 48.865C636.335 48.865 635.637 49.563 634.24 50.2611C632.844 49.563 632.146 49.563 630.75 49.563C630.052 49.563 623.769 46.7707 622.373 51.6572C622.373 52.3553 620.977 55.8457 620.977 57.9399C620.977 62.8264 624.467 65.6187 624.467 65.6187C623.769 67.0148 623.071 68.411 622.373 69.8071C619.581 69.8071 546.982 67.7129 498.815 67.0148L484.853 18.1498C484.853 14.6595 486.249 11.1691 488.344 11.1691ZM363.389 50.9592C363.389 46.7707 368.973 42.5823 370.37 41.8843C373.86 39.092 390.614 31.4132 412.952 22.3382C431.102 14.6595 455.534 14.6595 464.609 13.2633C466.703 13.2633 468.1 14.6595 468.1 16.0556L472.288 64.9206C462.515 64.9206 375.954 62.8264 373.86 62.8264C371.068 62.8264 364.087 59.336 363.389 50.9592Z" fill="#E53E2B"/>
<path d="M55.93 352H37.4C28.4467 352 21.5333 349.62 16.66 344.86C11.7867 340.1 9.35 333.243 9.35 324.29V270.4C9.35 261.447 11.7867 254.59 16.66 249.83C21.5333 245.07 28.4467 242.69 37.4 242.69H55.93C64.77 242.69 71.6267 245.127 76.5 250C81.4867 254.76 83.98 261.56 83.98 270.4V278.39C83.98 280.883 82.7333 282.13 80.24 282.13H65.96C63.58 282.13 62.39 280.883 62.39 278.39V271.42C62.39 267.793 61.5967 265.243 60.01 263.77C58.5367 262.183 55.9867 261.39 52.36 261.39H40.8C37.2867 261.39 34.7367 262.183 33.15 263.77C31.6767 265.243 30.94 267.793 30.94 271.42V323.27C30.94 326.897 31.6767 329.503 33.15 331.09C34.7367 332.563 37.2867 333.3 40.8 333.3H52.36C55.9867 333.3 58.5367 332.563 60.01 331.09C61.5967 329.503 62.39 326.897 62.39 323.27V316.3C62.39 313.807 63.58 312.56 65.96 312.56H80.24C82.7333 312.56 83.98 313.807 83.98 316.3V324.29C83.98 333.13 81.4867 339.987 76.5 344.86C71.6267 349.62 64.77 352 55.93 352ZM131.255 352H127.175C118.221 352 111.308 349.62 106.435 344.86C101.561 340.1 99.1246 333.243 99.1246 324.29V293.01C99.1246 284.057 101.561 277.2 106.435 272.44C111.308 267.68 118.221 265.3 127.175 265.3H166.445C168.938 265.3 170.185 266.49 170.185 268.87V348.43C170.185 350.81 168.938 352 166.445 352H152.165C149.785 352 148.595 350.81 148.595 348.43V342.82H147.915C146.668 345.88 144.458 348.203 141.285 349.79C138.111 351.263 134.768 352 131.255 352ZM148.595 320.38V285.87C148.595 284.623 147.915 284 146.555 284H130.575C126.948 284 124.398 284.793 122.925 286.38C121.451 287.853 120.715 290.403 120.715 294.03V323.27C120.715 326.897 121.451 329.503 122.925 331.09C124.398 332.563 126.948 333.3 130.575 333.3H136.865C144.685 333.3 148.595 328.993 148.595 320.38ZM206.833 352H192.383C190.003 352 188.813 350.81 188.813 348.43V268.87C188.813 266.49 190.003 265.3 192.383 265.3H206.833C209.213 265.3 210.403 266.49 210.403 268.87V274.65H211.083C212.33 271.59 214.54 269.267 217.713 267.68C220.886 266.093 224.23 265.3 227.743 265.3H233.863C236.13 265.3 237.263 266.49 237.263 268.87V280.6C237.263 281.96 236.98 282.923 236.413 283.49C235.96 283.943 235.11 284.113 233.863 284H222.133C214.313 284 210.403 288.42 210.403 297.26V348.43C210.403 350.81 209.213 352 206.833 352ZM284.414 324.12V320.72C284.414 318.34 285.604 317.15 287.984 317.15H302.434C304.814 317.15 306.004 318.34 306.004 320.72V322.08C306.004 326.387 306.854 329.333 308.554 330.92C310.254 332.507 313.371 333.3 317.904 333.3H325.894C330.314 333.3 333.374 332.45 335.074 330.75C336.887 329.05 337.794 325.877 337.794 321.23V319.19C337.794 315.903 336.434 313.41 333.714 311.71C331.107 309.897 327.821 308.82 323.854 308.48C319.887 308.14 315.581 307.517 310.934 306.61C306.401 305.59 302.151 304.343 298.184 302.87C294.217 301.283 290.874 298.28 288.154 293.86C285.547 289.327 284.244 283.547 284.244 276.52V270.57C284.244 261.73 286.737 254.873 291.724 250C296.711 245.127 303.624 242.69 312.464 242.69H329.464C338.417 242.69 345.387 245.127 350.374 250C355.361 254.873 357.854 261.73 357.854 270.57V273.8C357.854 276.18 356.664 277.37 354.284 277.37H339.834C337.454 277.37 336.264 276.18 336.264 273.8V272.78C336.264 268.36 335.414 265.357 333.714 263.77C332.014 262.183 328.897 261.39 324.364 261.39H317.734C313.087 261.39 309.914 262.297 308.214 264.11C306.627 265.81 305.834 269.21 305.834 274.31V277.54C305.834 282.867 310.481 285.927 319.774 286.72C329.407 287.513 337.964 289.44 345.444 292.5C349.411 294.2 352.697 297.26 355.304 301.68C358.024 305.987 359.384 311.54 359.384 318.34V324.12C359.384 332.96 356.891 339.817 351.904 344.69C346.917 349.563 340.004 352 331.164 352H312.634C303.794 352 296.881 349.563 291.894 344.69C286.907 339.817 284.414 332.96 284.414 324.12ZM395.095 375.12H380.645C378.265 375.12 377.075 373.987 377.075 371.72V268.87C377.075 266.49 378.265 265.3 380.645 265.3H395.095C397.475 265.3 398.665 266.49 398.665 268.87V274.48H399.345C400.591 271.42 402.801 269.153 405.975 267.68C409.148 266.093 412.491 265.3 416.005 265.3H422.975C431.701 265.3 438.275 267.68 442.695 272.44C447.228 277.2 449.495 284.057 449.495 293.01V324.29C449.495 333.243 447.228 340.1 442.695 344.86C438.275 349.62 431.701 352 422.975 352H416.005C412.491 352 409.148 351.263 405.975 349.79C402.801 348.203 400.591 345.88 399.345 342.82H398.665V371.72C398.665 373.987 397.475 375.12 395.095 375.12ZM410.395 333.3H417.875C421.501 333.3 424.051 332.563 425.525 331.09C427.111 329.503 427.905 326.897 427.905 323.27V294.03C427.905 290.403 427.111 287.853 425.525 286.38C424.051 284.793 421.501 284 417.875 284H410.395C402.575 284 398.665 288.307 398.665 296.92V320.38C398.665 328.993 402.575 333.3 410.395 333.3ZM496.987 352H492.907C483.954 352 477.04 349.62 472.167 344.86C467.294 340.1 464.857 333.243 464.857 324.29V293.01C464.857 284.057 467.294 277.2 472.167 272.44C477.04 267.68 483.954 265.3 492.907 265.3H532.177C534.67 265.3 535.917 266.49 535.917 268.87V348.43C535.917 350.81 534.67 352 532.177 352H517.897C515.517 352 514.327 350.81 514.327 348.43V342.82H513.647C512.4 345.88 510.19 348.203 507.017 349.79C503.844 351.263 500.5 352 496.987 352ZM514.327 320.38V285.87C514.327 284.623 513.647 284 512.287 284H496.307C492.68 284 490.13 284.793 488.657 286.38C487.184 287.853 486.447 290.403 486.447 294.03V323.27C486.447 326.897 487.184 329.503 488.657 331.09C490.13 332.563 492.68 333.3 496.307 333.3H502.597C510.417 333.3 514.327 328.993 514.327 320.38ZM572.565 352H558.115C555.735 352 554.545 350.81 554.545 348.43V268.87C554.545 266.49 555.735 265.3 558.115 265.3H572.565C574.945 265.3 576.135 266.49 576.135 268.87V274.65H576.815C578.062 271.59 580.272 269.267 583.445 267.68C586.619 266.093 589.962 265.3 593.475 265.3H599.595C601.862 265.3 602.995 266.49 602.995 268.87V280.6C602.995 281.96 602.712 282.923 602.145 283.49C601.692 283.943 600.842 284.113 599.595 284H587.865C580.045 284 576.135 288.42 576.135 297.26V348.43C576.135 350.81 574.945 352 572.565 352ZM677.733 352H640.163C631.21 352 624.296 349.62 619.423 344.86C614.55 340.1 612.113 333.243 612.113 324.29V293.01C612.113 284.057 614.55 277.2 619.423 272.44C624.296 267.68 631.21 265.3 640.163 265.3H653.593C662.546 265.3 669.46 267.68 674.333 272.44C679.206 277.2 681.643 284.057 681.643 293.01V314.6C681.643 316.98 680.453 318.17 678.073 318.17H635.403C634.043 318.17 633.363 318.793 633.363 320.04V323.78C633.363 327.293 634.1 329.843 635.573 331.43C637.16 332.903 639.766 333.64 643.393 333.64H677.733C680.113 333.64 681.303 334.887 681.303 337.38V348.6C681.303 349.847 681.02 350.753 680.453 351.32C680 351.773 679.093 352 677.733 352ZM635.403 303.72H658.523C659.77 303.72 660.393 303.097 660.393 301.85V293.69C660.393 290.063 659.656 287.513 658.183 286.04C656.71 284.567 654.16 283.83 650.533 283.83H643.393C639.766 283.83 637.216 284.567 635.743 286.04C634.27 287.513 633.533 290.063 633.533 293.69V301.85C633.533 303.097 634.156 303.72 635.403 303.72ZM754.89 352H740.44C738.06 352 736.87 350.81 736.87 348.43V246.26C736.87 243.88 738.06 242.69 740.44 242.69H781.92C790.76 242.69 797.617 245.127 802.49 250C807.364 254.76 809.8 261.56 809.8 270.4V286.72C809.8 295.56 807.364 302.417 802.49 307.29C797.617 312.05 790.76 314.43 781.92 314.43H760.5C759.14 314.43 758.46 315.053 758.46 316.3V348.43C758.46 350.81 757.27 352 754.89 352ZM760.33 295.56H778.35C781.977 295.56 784.527 294.823 786 293.35C787.474 291.763 788.21 289.213 788.21 285.7V271.42C788.21 267.793 787.474 265.243 786 263.77C784.527 262.183 781.977 261.39 778.35 261.39H760.33C759.084 261.39 758.46 262.013 758.46 263.26V293.69C758.46 294.937 759.084 295.56 760.33 295.56ZM855.747 352H851.667C842.713 352 835.8 349.62 830.927 344.86C826.053 340.1 823.617 333.243 823.617 324.29V293.01C823.617 284.057 826.053 277.2 830.927 272.44C835.8 267.68 842.713 265.3 851.667 265.3H890.937C893.43 265.3 894.677 266.49 894.677 268.87V348.43C894.677 350.81 893.43 352 890.937 352H876.657C874.277 352 873.087 350.81 873.087 348.43V342.82H872.407C871.16 345.88 868.95 348.203 865.777 349.79C862.603 351.263 859.26 352 855.747 352ZM873.087 320.38V285.87C873.087 284.623 872.407 284 871.047 284H855.067C851.44 284 848.89 284.793 847.417 286.38C845.943 287.853 845.207 290.403 845.207 294.03V323.27C845.207 326.897 845.943 329.503 847.417 331.09C848.89 332.563 851.44 333.3 855.067 333.3H861.357C869.177 333.3 873.087 328.993 873.087 320.38ZM931.325 352H916.875C914.495 352 913.305 350.81 913.305 348.43V268.87C913.305 266.49 914.495 265.3 916.875 265.3H931.325C933.705 265.3 934.895 266.49 934.895 268.87V274.65H935.575C936.822 271.59 939.032 269.267 942.205 267.68C945.378 266.093 948.722 265.3 952.235 265.3H958.355C960.622 265.3 961.755 266.49 961.755 268.87V280.6C961.755 281.96 961.472 282.923 960.905 283.49C960.452 283.943 959.602 284.113 958.355 284H946.625C938.805 284 934.895 288.42 934.895 297.26V348.43C934.895 350.81 933.705 352 931.325 352ZM974.443 284H967.643C966.283 284 965.319 283.773 964.753 283.32C964.299 282.867 964.073 281.96 964.073 280.6V268.87C964.073 266.49 965.263 265.3 967.643 265.3H974.443C975.689 265.3 976.313 264.677 976.313 263.43V247.28C976.313 244.9 977.559 243.71 980.053 243.71H994.333C996.713 243.71 997.903 244.9 997.903 247.28V263.43C997.903 264.677 998.583 265.3 999.943 265.3H1013.2C1015.58 265.3 1016.77 266.49 1016.77 268.87V280.6C1016.77 281.847 1016.49 282.753 1015.92 283.32C1015.47 283.773 1014.56 284 1013.2 284H999.943C998.583 284 997.903 284.623 997.903 285.87V323.44C997.903 326.953 998.696 329.503 1000.28 331.09C1001.87 332.563 1004.48 333.3 1008.1 333.3H1014.9C1017.28 333.3 1018.47 334.49 1018.47 336.87V348.6C1018.47 349.847 1018.19 350.753 1017.62 351.32C1017.17 351.773 1016.26 352 1014.9 352H1004.53C995.579 352 988.609 349.62 983.623 344.86C978.749 340.1 976.313 333.3 976.313 324.46V285.87C976.313 284.623 975.689 284 974.443 284ZM1065.31 352H1033.01C1030.75 352 1029.61 350.81 1029.61 348.43V337.55C1029.61 336.303 1029.84 335.453 1030.29 335C1030.75 334.433 1031.65 334.15 1033.01 334.15H1061.4C1066.96 334.15 1069.73 332.45 1069.73 329.05V328.2C1069.73 325.48 1067.41 322.873 1062.76 320.38L1045.93 311.03C1040.15 308.083 1035.9 304.91 1033.18 301.51C1030.46 298.11 1029.1 293.747 1029.1 288.42C1029.1 280.487 1031.2 274.65 1035.39 270.91C1039.59 267.17 1046.16 265.3 1055.11 265.3H1083.5C1085.77 265.3 1086.9 266.49 1086.9 268.87V279.92C1086.9 281.167 1086.68 282.073 1086.22 282.64C1085.77 283.093 1084.86 283.32 1083.5 283.32H1059.87C1054.32 283.32 1051.54 284.737 1051.54 287.57V288.42C1051.54 290.913 1053.98 293.463 1058.85 296.07L1076.02 306.27C1081.92 309.443 1086.05 312.73 1088.43 316.13C1090.81 319.417 1092 323.78 1092 329.22C1092 344.407 1083.11 352 1065.31 352Z" fill="white"/>
<path d="M262.32 476.8C258.587 476.8 255.44 476.213 252.88 475.04C250.373 473.813 248.48 472.427 247.2 470.88C245.973 469.333 245.36 468.053 245.36 467.04C245.36 466.507 245.547 466.107 245.92 465.84C246.347 465.52 246.773 465.36 247.2 465.36H250.8C251.333 465.36 251.813 465.627 252.24 466.16C253.52 467.653 254.907 468.827 256.4 469.68C257.893 470.533 259.893 470.96 262.4 470.96C265.173 470.96 267.413 470.427 269.12 469.36C270.88 468.24 271.76 466.72 271.76 464.8C271.76 463.52 271.387 462.48 270.64 461.68C269.947 460.827 268.72 460.107 266.96 459.52C265.253 458.88 262.693 458.187 259.28 457.44C254.64 456.427 251.333 454.96 249.36 453.04C247.44 451.12 246.48 448.64 246.48 445.6C246.48 443.573 247.067 441.653 248.24 439.84C249.467 437.973 251.227 436.48 253.52 435.36C255.867 434.187 258.667 433.6 261.92 433.6C265.333 433.6 268.24 434.16 270.64 435.28C273.04 436.4 274.827 437.733 276 439.28C277.227 440.773 277.84 442.027 277.84 443.04C277.84 443.52 277.653 443.92 277.28 444.24C276.96 444.56 276.56 444.72 276.08 444.72H272.72C272.08 444.72 271.547 444.453 271.12 443.92C270.267 442.907 269.52 442.133 268.88 441.6C268.293 441.013 267.413 440.507 266.24 440.08C265.12 439.653 263.68 439.44 261.92 439.44C259.36 439.44 257.387 440 256 441.12C254.613 442.187 253.92 443.6 253.92 445.36C253.92 446.48 254.213 447.44 254.8 448.24C255.387 448.987 256.507 449.68 258.16 450.32C259.867 450.96 262.32 451.627 265.52 452.32C270.587 453.387 274.16 454.933 276.24 456.96C278.373 458.933 279.44 461.467 279.44 464.56C279.44 466.853 278.773 468.933 277.44 470.8C276.107 472.667 274.133 474.133 271.52 475.2C268.96 476.267 265.893 476.8 262.32 476.8ZM314.301 426.64C313.768 426.64 313.315 426.48 312.941 426.16C312.621 425.787 312.461 425.333 312.461 424.8V420.48C312.461 419.947 312.621 419.493 312.941 419.12C313.315 418.747 313.768 418.56 314.301 418.56H319.341C319.875 418.56 320.328 418.747 320.701 419.12C321.075 419.493 321.261 419.947 321.261 420.48V424.8C321.261 425.333 321.075 425.787 320.701 426.16C320.328 426.48 319.875 426.64 319.341 426.64H314.301ZM314.941 476C314.408 476 313.955 475.84 313.581 475.52C313.261 475.147 313.101 474.693 313.101 474.16V436.24C313.101 435.707 313.261 435.28 313.581 434.96C313.955 434.587 314.408 434.4 314.941 434.4H318.781C319.315 434.4 319.741 434.587 320.061 434.96C320.435 435.28 320.621 435.707 320.621 436.24V474.16C320.621 474.693 320.435 475.147 320.061 475.52C319.741 475.84 319.315 476 318.781 476H314.941ZM358.716 476C358.183 476 357.73 475.84 357.356 475.52C357.036 475.147 356.876 474.693 356.876 474.16V436.24C356.876 435.707 357.036 435.28 357.356 434.96C357.73 434.587 358.183 434.4 358.716 434.4H362.476C363.01 434.4 363.436 434.587 363.756 434.96C364.13 435.28 364.316 435.707 364.316 436.24V439.76C365.863 437.787 367.676 436.267 369.756 435.2C371.89 434.133 374.53 433.6 377.676 433.6C382.796 433.6 386.77 435.253 389.596 438.56C392.476 441.813 393.916 446.16 393.916 451.6V474.16C393.916 474.693 393.73 475.147 393.356 475.52C393.036 475.84 392.61 476 392.076 476H388.076C387.543 476 387.09 475.84 386.716 475.52C386.396 475.147 386.236 474.693 386.236 474.16V452C386.236 448.213 385.303 445.28 383.436 443.2C381.623 441.12 378.983 440.08 375.516 440.08C372.156 440.08 369.49 441.147 367.516 443.28C365.543 445.36 364.556 448.267 364.556 452V474.16C364.556 474.693 364.37 475.147 363.996 475.52C363.676 475.84 363.25 476 362.716 476H358.716ZM446.592 476.8C440.885 476.8 436.405 475.2 433.152 472C429.952 468.747 428.245 464.213 428.032 458.4L427.952 455.2L428.032 452C428.245 446.187 429.952 441.68 433.152 438.48C436.405 435.227 440.885 433.6 446.592 433.6C450.432 433.6 453.685 434.293 456.352 435.68C459.019 437.067 460.992 438.773 462.272 440.8C463.605 442.827 464.325 444.853 464.432 446.88C464.485 447.413 464.325 447.84 463.952 448.16C463.579 448.48 463.125 448.64 462.592 448.64H458.752C458.219 448.64 457.819 448.533 457.552 448.32C457.285 448.107 457.019 447.68 456.752 447.04C455.845 444.48 454.565 442.667 452.912 441.6C451.259 440.48 449.179 439.92 446.672 439.92C443.365 439.92 440.725 440.96 438.752 443.04C436.832 445.067 435.792 448.187 435.632 452.4L435.552 455.28L435.632 458C435.792 462.267 436.832 465.413 438.752 467.44C440.672 469.467 443.312 470.48 446.672 470.48C449.179 470.48 451.259 469.947 452.912 468.88C454.565 467.76 455.845 465.92 456.752 463.36C457.019 462.72 457.285 462.293 457.552 462.08C457.819 461.813 458.219 461.68 458.752 461.68H462.592C463.125 461.68 463.579 461.867 463.952 462.24C464.325 462.56 464.485 462.987 464.432 463.52C464.325 465.493 463.605 467.52 462.272 469.6C460.992 471.627 459.019 473.333 456.352 474.72C453.739 476.107 450.485 476.8 446.592 476.8ZM514.973 476.8C509.479 476.8 505.079 475.12 501.773 471.76C498.519 468.347 496.733 463.707 496.413 457.84L496.333 455.12L496.413 452.48C496.786 446.72 498.599 442.133 501.853 438.72C505.159 435.307 509.506 433.6 514.893 433.6C520.813 433.6 525.399 435.493 528.653 439.28C531.906 443.013 533.533 448.08 533.533 454.48V455.84C533.533 456.373 533.346 456.827 532.973 457.2C532.653 457.52 532.226 457.68 531.693 457.68H504.013V458.4C504.173 461.867 505.213 464.827 507.133 467.28C509.106 469.68 511.693 470.88 514.893 470.88C517.346 470.88 519.346 470.4 520.893 469.44C522.493 468.427 523.666 467.387 524.413 466.32C524.893 465.68 525.239 465.307 525.453 465.2C525.719 465.04 526.173 464.96 526.813 464.96H530.733C531.213 464.96 531.613 465.093 531.933 465.36C532.253 465.627 532.413 466 532.413 466.48C532.413 467.653 531.666 469.067 530.173 470.72C528.733 472.373 526.679 473.813 524.013 475.04C521.399 476.213 518.386 476.8 514.973 476.8ZM525.933 452.16V451.92C525.933 448.24 524.919 445.253 522.893 442.96C520.919 440.613 518.253 439.44 514.893 439.44C511.533 439.44 508.866 440.613 506.893 442.96C504.973 445.253 504.013 448.24 504.013 451.92V452.16H525.933ZM627.667 476C627.134 476 626.681 475.84 626.307 475.52C625.987 475.147 625.827 474.693 625.827 474.16V429.36L612.547 439.6C612.174 439.92 611.774 440.08 611.347 440.08C610.867 440.08 610.414 439.813 609.987 439.28L607.907 436.64C607.641 436.267 607.507 435.893 607.507 435.52C607.507 434.88 607.774 434.373 608.307 434L625.747 420.56C626.334 420.187 627.027 420 627.827 420H631.907C632.441 420 632.867 420.187 633.187 420.56C633.561 420.88 633.747 421.307 633.747 421.84V474.16C633.747 474.693 633.561 475.147 633.187 475.52C632.867 475.84 632.441 476 631.907 476H627.667ZM679.646 476C679.166 476 678.766 475.84 678.446 475.52C678.18 475.147 678.046 474.72 678.046 474.24C678.046 473.867 678.153 473.52 678.366 473.2L690.606 456.16C689.326 456.48 687.886 456.64 686.286 456.64C682.5 456.587 679.14 455.707 676.206 454C673.326 452.293 671.113 450.027 669.566 447.2C668.02 444.373 667.246 441.36 667.246 438.16C667.246 434.96 667.993 431.92 669.486 429.04C671.033 426.107 673.326 423.733 676.366 421.92C679.406 420.107 683.086 419.2 687.406 419.2C691.726 419.2 695.406 420.08 698.446 421.84C701.54 423.6 703.86 425.92 705.406 428.8C706.953 431.68 707.726 434.747 707.726 438C707.726 440.88 707.22 443.44 706.206 445.68C705.193 447.867 703.78 450.267 701.966 452.88L686.526 474.4C686.153 474.88 685.78 475.28 685.406 475.6C685.086 475.867 684.606 476 683.966 476H679.646ZM687.406 450.16C689.646 450.16 691.7 449.68 693.566 448.72C695.486 447.707 697.006 446.293 698.126 444.48C699.246 442.613 699.806 440.48 699.806 438.08C699.806 435.68 699.246 433.573 698.126 431.76C697.006 429.893 695.486 428.48 693.566 427.52C691.7 426.507 689.646 426 687.406 426C685.166 426 683.113 426.507 681.246 427.52C679.38 428.48 677.886 429.893 676.766 431.76C675.7 433.573 675.166 435.68 675.166 438.08C675.166 440.48 675.7 442.613 676.766 444.48C677.886 446.293 679.38 447.707 681.246 448.72C683.113 449.68 685.166 450.16 687.406 450.16ZM751.468 476C750.988 476 750.588 475.84 750.268 475.52C750.001 475.147 749.868 474.72 749.868 474.24C749.868 473.867 749.975 473.52 750.188 473.2L762.428 456.16C761.148 456.48 759.708 456.64 758.108 456.64C754.321 456.587 750.961 455.707 748.028 454C745.148 452.293 742.935 450.027 741.388 447.2C739.841 444.373 739.068 441.36 739.068 438.16C739.068 434.96 739.815 431.92 741.308 429.04C742.855 426.107 745.148 423.733 748.188 421.92C751.228 420.107 754.908 419.2 759.228 419.2C763.548 419.2 767.228 420.08 770.268 421.84C773.361 423.6 775.681 425.92 777.228 428.8C778.775 431.68 779.548 434.747 779.548 438C779.548 440.88 779.041 443.44 778.028 445.68C777.015 447.867 775.601 450.267 773.788 452.88L758.348 474.4C757.975 474.88 757.601 475.28 757.228 475.6C756.908 475.867 756.428 476 755.788 476H751.468ZM759.228 450.16C761.468 450.16 763.521 449.68 765.388 448.72C767.308 447.707 768.828 446.293 769.948 444.48C771.068 442.613 771.628 440.48 771.628 438.08C771.628 435.68 771.068 433.573 769.948 431.76C768.828 429.893 767.308 428.48 765.388 427.52C763.521 426.507 761.468 426 759.228 426C756.988 426 754.935 426.507 753.068 427.52C751.201 428.48 749.708 429.893 748.588 431.76C747.521 433.573 746.988 435.68 746.988 438.08C746.988 440.48 747.521 442.613 748.588 444.48C749.708 446.293 751.201 447.707 753.068 448.72C754.935 449.68 756.988 450.16 759.228 450.16ZM823.29 476C822.81 476 822.41 475.84 822.09 475.52C821.823 475.147 821.69 474.72 821.69 474.24C821.69 473.867 821.797 473.52 822.01 473.2L834.25 456.16C832.97 456.48 831.53 456.64 829.93 456.64C826.143 456.587 822.783 455.707 819.85 454C816.97 452.293 814.757 450.027 813.21 447.2C811.663 444.373 810.89 441.36 810.89 438.16C810.89 434.96 811.637 431.92 813.13 429.04C814.677 426.107 816.97 423.733 820.01 421.92C823.05 420.107 826.73 419.2 831.05 419.2C835.37 419.2 839.05 420.08 842.09 421.84C845.183 423.6 847.503 425.92 849.05 428.8C850.597 431.68 851.37 434.747 851.37 438C851.37 440.88 850.863 443.44 849.85 445.68C848.837 447.867 847.423 450.267 845.61 452.88L830.17 474.4C829.797 474.88 829.423 475.28 829.05 475.6C828.73 475.867 828.25 476 827.61 476H823.29ZM831.05 450.16C833.29 450.16 835.343 449.68 837.21 448.72C839.13 447.707 840.65 446.293 841.77 444.48C842.89 442.613 843.45 440.48 843.45 438.08C843.45 435.68 842.89 433.573 841.77 431.76C840.65 429.893 839.13 428.48 837.21 427.52C835.343 426.507 833.29 426 831.05 426C828.81 426 826.757 426.507 824.89 427.52C823.023 428.48 821.53 429.893 820.41 431.76C819.343 433.573 818.81 435.68 818.81 438.08C818.81 440.48 819.343 442.613 820.41 444.48C821.53 446.293 823.023 447.707 824.89 448.72C826.757 449.68 828.81 450.16 831.05 450.16Z" fill="white" fill-opacity="0.8"/>
<circle cx="364.5" cy="153.5" r="33.5" fill="black"/>
<circle cx="770.5" cy="153.5" r="33.5" fill="#313131"/>
<circle cx="186.5" cy="452.5" r="12.5" fill="#E53E2B"/>
<circle cx="916.5" cy="452.5" r="12.5" fill="#E53E2B"/>
</svg>