<svg xmlns="http://www.w3.org/2000/svg" width="868" height="514" viewBox="0 0 868 514" fill="none">
<path d="M343.846 196.313H336.679V203.709H343.846V196.313Z" fill="#F7F7F7"/>
<path d="M329.513 70.6666V63.4999C329.513 61.5992 328.758 59.7764 327.414 58.4324C326.07 57.0883 324.247 56.3333 322.346 56.3333H279.346C277.445 56.3333 275.622 57.0883 274.278 58.4324C272.934 59.7764 272.179 61.5992 272.179 63.4999V70.6666C272.179 72.5673 272.934 74.3902 274.278 75.7342C275.622 77.0782 277.445 77.8333 279.346 77.8333H322.346C324.247 77.8333 326.07 77.0782 327.414 75.7342C328.758 74.3902 329.513 72.5673 329.513 70.6666ZM279.346 63.4999H322.346V70.6666H279.346V63.4999Z" fill="#F7F7F7"/>
<path d="M220.221 72.0749C220.606 71.8048 220.935 71.4615 221.188 71.0645C221.44 70.6674 221.612 70.2245 221.694 69.761C221.776 69.2975 221.765 68.8224 221.663 68.363C221.561 67.9035 221.369 67.4687 221.099 67.0833L208.815 49.4426C208.273 48.6633 207.443 48.1313 206.508 47.9633C205.574 47.7953 204.611 48.0052 203.831 48.5467L168.535 73.1105C167.755 73.6537 167.223 74.4843 167.056 75.4197C166.889 76.3551 167.1 77.3187 167.643 78.0985L179.926 95.75C180.469 96.5293 181.299 97.0613 182.233 97.2293C183.168 97.3972 184.131 97.1874 184.911 96.6458L190.805 92.525L194.185 97.3876L180.514 107.152C180.048 107.485 179.668 107.925 179.407 108.435C179.145 108.945 179.01 109.51 179.013 110.083V239.083C179.018 243.833 180.908 248.387 184.267 251.746C187.625 255.105 192.179 256.994 196.929 257H325.929C330.679 256.994 335.233 255.105 338.592 251.746C341.951 248.387 343.84 243.833 343.846 239.083V210.879H336.679V239.083C336.679 241.934 335.547 244.669 333.531 246.685C331.515 248.701 328.78 249.833 325.929 249.833H196.929C194.078 249.833 191.344 248.701 189.328 246.685C187.312 244.669 186.179 241.934 186.179 239.083V111.929L206.318 97.5417L218.788 88.7947C218.941 88.6579 219.083 88.5081 219.211 88.3468L233.909 77.8333H261.429C262.38 77.8333 263.291 77.4558 263.963 76.7838C264.635 76.1118 265.013 75.2004 265.013 74.25V49.1667H336.679V189.146H343.846V49.1667C343.846 47.2659 343.091 45.4431 341.747 44.0991C340.403 42.7551 338.58 42 336.679 42H265.013C263.112 42 261.289 42.7551 259.945 44.0991C258.601 45.4431 257.846 47.2659 257.846 49.1667V70.6667H232.763C232.016 70.6666 231.288 70.8996 230.681 71.3332L217.505 80.743L214.316 76.1742L220.221 72.0749ZM183.757 88.7123L175.569 76.9447L181.453 72.8525L185.549 78.7328L191.429 74.6406L187.337 68.7603L193.221 64.6646L197.313 70.5448L203.193 66.4527L199.101 60.5724L204.985 56.4767L213.173 68.2407L197.646 79.0588L189.655 84.6022L189.634 84.6202L183.757 88.7123ZM208.435 80.2736L211.66 84.9104L202.118 91.7187L199.99 93.2166L196.671 88.44L203.627 83.6025L208.435 80.2736Z" fill="#F7F7F7"/>
<path d="M258.638 136.507C255.986 139.8 232.763 169.14 232.763 184.359C232.763 191.962 235.783 199.253 241.159 204.629C246.535 210.005 253.826 213.025 261.429 213.025C269.032 213.025 276.324 210.005 281.7 204.629C287.076 199.253 290.096 191.962 290.096 184.359C290.096 169.14 266.872 139.8 264.221 136.507C263.873 136.108 263.444 135.788 262.963 135.569C262.481 135.35 261.958 135.236 261.429 135.236C260.9 135.236 260.377 135.35 259.896 135.569C259.414 135.788 258.985 136.108 258.638 136.507V136.507ZM261.429 206.833C255.601 206.695 250.065 204.252 246.035 200.039C242.005 195.826 239.809 190.188 239.929 184.359C239.929 174.863 253.575 154.925 261.429 144.584C269.284 154.925 282.929 174.859 282.929 184.359C283.05 190.188 280.854 195.826 276.824 200.039C272.794 204.252 267.258 206.695 261.429 206.833Z" fill="#F7F7F7"/>
<path d="M204.096 120.833V228.333C204.096 229.284 204.474 230.195 205.146 230.867C205.818 231.539 206.729 231.917 207.679 231.917H315.179C316.13 231.917 317.041 231.539 317.713 230.867C318.385 230.195 318.763 229.284 318.763 228.333V120.833C318.763 119.883 318.385 118.972 317.713 118.3C317.041 117.628 316.13 117.25 315.179 117.25H207.679C206.729 117.25 205.818 117.628 205.146 118.3C204.474 118.972 204.096 119.883 204.096 120.833ZM211.263 124.417H311.596V224.75H211.263V124.417Z" fill="#F7F7F7"/>
<path d="M293.679 95.7499H232.763V102.917H293.679V95.7499Z" fill="#F7F7F7"/>
<path d="M318.763 95.7499H300.846V102.917H318.763V95.7499Z" fill="#F7F7F7"/>
</svg>