<svg xmlns="http://www.w3.org/2000/svg" width="868" height="514" viewBox="0 0 868 514" fill="none">
<path d="M398.704 100.726H382.353C379.601 75.1253 364.957 47 339.821 47H215.158C202.707 47 191.358 54.3722 183.203 67.7587C177.583 76.9854 173.948 88.4302 172.626 100.726H160.297C154.068 100.726 149 105.793 149 112.022V125.173C149 131.402 154.068 136.47 160.297 136.47H163.047C160.636 141.639 159.281 147.395 159.281 153.465V185.89C156.586 187.683 154.804 190.745 154.804 194.218V201.164C154.804 206.425 158.891 210.74 164.055 211.124V222.154C164.055 228.435 169.165 233.546 175.447 233.546H208.936C215.217 233.546 220.327 228.436 220.327 222.154V211.162H246.719C248.48 212.71 250.781 213.657 253.304 213.657H301.675C304.198 213.657 306.499 212.71 308.26 211.162H334.652V222.154C334.652 228.435 339.761 233.546 346.043 233.546H379.533C385.814 233.546 390.924 228.436 390.924 222.154V211.124C396.088 210.739 400.175 206.425 400.175 201.164V194.218C400.175 190.745 398.393 187.683 395.698 185.89V173.1C395.698 170.988 393.986 169.276 391.874 169.276C389.762 169.276 388.051 170.988 388.051 173.1V184.219H308.26C306.442 182.621 304.072 181.724 301.675 181.724H253.304C250.875 181.724 248.508 182.646 246.719 184.219H166.928V153.465C166.928 135.137 182.025 120.749 199.644 120.749H215.936L230.989 145.306C235.195 152.167 242.807 156.429 250.854 156.429H304.126C312.173 156.429 319.785 152.167 323.991 145.306L339.044 120.749H355.336C372.921 120.749 388.052 135.1 388.052 153.465V155.258C388.052 157.37 389.763 159.081 391.875 159.081C393.987 159.081 395.698 157.37 395.698 155.258C395.599 154.262 396.412 146.077 391.933 136.47H398.704C404.932 136.47 410 131.402 410 125.173V112.022C410 105.793 404.932 100.726 398.704 100.726V100.726ZM160.297 128.823C158.284 128.823 156.646 127.186 156.646 125.173V112.022C156.646 110.01 158.284 108.372 160.297 108.372H172.101C172.075 109.303 172.058 110.236 172.058 111.173V124.04C170.485 125.516 169.031 127.115 167.709 128.823H160.297ZM212.681 222.154C212.681 224.219 211.001 225.899 208.936 225.899H175.447C173.382 225.899 171.702 224.219 171.702 222.154V211.162H212.681V222.154ZM383.278 222.154C383.278 224.219 381.598 225.899 379.533 225.899H346.043C343.978 225.899 342.298 224.219 342.298 222.154V211.162H383.278V222.154ZM390.177 191.866C390.311 191.866 390.441 191.885 390.57 191.908C390.623 191.917 390.676 191.929 390.729 191.942C391.746 192.199 392.528 193.133 392.528 194.218V201.164C392.528 202.439 391.452 203.515 390.177 203.515C381.786 203.515 319.946 203.515 311.673 203.515V191.866H390.177ZM301.675 189.371C302.953 189.371 304.026 190.465 304.026 191.723V203.658C304.026 204.859 303.004 206.01 301.675 206.01H253.304C251.97 206.01 250.953 204.855 250.953 203.658V191.723C250.953 190.468 252.022 189.372 253.304 189.372H301.675V189.371ZM243.306 191.866V203.516C235.252 203.516 172.201 203.516 164.802 203.516C163.527 203.516 162.451 202.439 162.451 201.164V194.218C162.451 193.135 163.231 192.201 164.248 191.943C164.302 191.929 164.356 191.917 164.41 191.908C164.538 191.885 164.668 191.867 164.802 191.867H243.306V191.866ZM192.57 113.729V111.173C192.57 98.6872 195.464 87.0579 200.72 78.4296C205.009 71.3887 210.137 67.5114 215.158 67.5114H270.579C272.691 67.5114 274.402 65.8002 274.402 63.6882C274.402 61.5762 272.691 59.865 270.579 59.865H215.158C207.367 59.865 199.92 65.0452 194.189 74.4514C188.214 84.2623 184.923 97.3037 184.923 111.173V115.894C183.116 116.604 181.374 117.44 179.705 118.393V111.173C179.705 97.7247 182.73 83.2331 189.733 71.7369C196.447 60.7163 205.477 54.647 215.158 54.647H339.821C349.503 54.647 358.532 60.7163 365.246 71.7364C372.223 83.1903 375.275 97.5988 375.275 111.173V118.394C373.606 117.441 371.863 116.605 370.057 115.895V111.173C370.057 97.3032 366.766 84.2618 360.79 74.4514C355.06 65.0452 347.613 59.865 339.822 59.865H288.421C286.309 59.865 284.598 61.5762 284.598 63.6882C284.598 65.8002 286.309 67.5114 288.421 67.5114H339.822C344.843 67.5114 349.971 71.3887 354.259 78.4291C359.515 87.0584 362.41 98.6867 362.41 111.173V113.729C360.37 113.365 357.958 113.126 355.644 113.108C355.626 95.3926 341.209 80.9861 323.49 80.9861C305.772 80.9861 291.356 95.39 291.335 113.103C280.012 113.103 211.315 113.103 199.644 113.103C197.253 113.103 194.671 113.353 192.57 113.729V113.729ZM317.471 141.31C314.646 145.92 309.532 148.783 304.125 148.783H250.854C245.448 148.783 240.334 145.92 237.508 141.31L224.905 120.749H330.075L317.471 141.31ZM311.676 113.103C311.698 106.606 316.988 101.327 323.49 101.327C329.991 101.327 335.282 106.606 335.303 113.103H311.676ZM342.951 113.103C342.929 102.39 334.208 93.6808 323.49 93.6808C312.772 93.6808 304.05 102.39 304.029 113.103H298.981C299.002 99.6063 309.989 88.6326 323.49 88.6326C336.991 88.6326 347.977 99.6063 347.999 113.103H342.951ZM402.354 125.173C402.354 127.186 400.716 128.823 398.704 128.823H387.27C385.948 127.115 384.494 125.516 382.921 124.04V111.173C382.921 110.246 382.907 109.31 382.88 108.372H398.703C400.716 108.372 402.353 110.01 402.353 112.022V125.173H402.354Z" fill="#F7F7F7"/>
<path d="M247.258 163.137C245.146 163.137 243.435 164.848 243.435 166.96C243.435 169.072 245.146 170.783 247.258 170.783H307.721C309.833 170.783 311.544 169.072 311.544 166.96C311.544 164.848 309.833 163.137 307.721 163.137H247.258Z" fill="#F7F7F7"/>
<path d="M358.95 134.861C348.624 134.861 340.224 143.262 340.224 153.587C340.224 163.912 348.624 172.313 358.95 172.313C369.276 172.313 377.676 163.913 377.676 153.587C377.676 143.261 369.276 134.861 358.95 134.861ZM358.95 164.667C352.84 164.667 347.87 159.697 347.87 153.588C347.87 147.479 352.84 142.508 358.95 142.508C365.059 142.508 370.03 147.479 370.03 153.588C370.03 159.697 365.06 164.667 358.95 164.667Z" fill="#F7F7F7"/>
<path d="M177.302 153.587C177.302 163.913 185.703 172.313 196.028 172.313C206.354 172.313 214.754 163.913 214.754 153.587C214.754 143.261 206.354 134.861 196.028 134.861C185.703 134.861 177.302 143.261 177.302 153.587ZM207.108 153.587C207.108 159.697 202.138 164.667 196.029 164.667C189.919 164.667 184.949 159.697 184.949 153.587C184.949 147.478 189.919 142.508 196.029 142.508C202.138 142.508 207.108 147.478 207.108 153.587V153.587Z" fill="#F7F7F7"/>
</svg>