<svg xmlns="http://www.w3.org/2000/svg" width="868" height="514" viewBox="0 0 868 514" fill="none">
<path d="M246.851 149.648C249.596 145.8 251.74 141.496 253.149 136.874C260.228 135.229 265.526 128.586 265.587 120.871C268.222 118.758 269.915 115.514 269.915 111.881C269.915 108.25 268.224 105.007 265.59 102.894V58.5489C265.59 54.6275 264.222 50.8448 261.737 47.8989C256.396 41.5637 247.444 40.5482 240.916 45.5328L238.816 47.1363C235.787 41.5919 230.084 38 223.736 38H204.937C203.14 38 201.685 39.4556 201.685 41.252C201.685 43.0483 203.14 44.5039 204.937 44.5039H223.736C228.647 44.5039 232.958 48.0442 234.22 53.1138C234.484 54.1761 235.266 55.0346 236.299 55.3971C237.332 55.76 238.479 55.577 239.349 54.9132L244.863 50.7021C248.585 47.8599 253.702 48.4578 256.765 52.0909C258.262 53.8661 259.086 56.1598 259.086 58.5489V100.384C258.427 100.344 258.408 100.369 255.065 100.361C255.059 96.9388 255.862 88.8644 247.677 83.2451C243.118 80.1154 237.254 79.2989 231.99 81.058C218.71 85.5006 206.466 83.2316 194.56 74.1253C183.35 65.5501 166.461 72.8306 166.461 88.4339V100.361C163.077 100.369 163.099 100.344 162.44 100.384V65.7478C162.439 54.0339 171.425 44.5039 182.47 44.5039H191.935C193.731 44.5039 195.187 43.0483 195.187 41.252C195.187 39.4556 193.731 38 191.935 38H182.47C167.839 38 155.935 50.4476 155.935 65.7478V102.894C153.301 105.007 151.61 108.25 151.61 111.881C151.61 115.514 153.302 118.758 155.938 120.871C155.998 128.598 161.239 135.236 168.377 136.878C169.786 141.498 171.929 145.801 174.673 149.648C166.686 152.398 159.522 157.371 154.147 163.986C147.604 172.04 144 182.202 144 192.599V253.566C144 257.114 146.886 260 150.434 260H229.287C231.083 260 232.539 258.544 232.539 256.748C232.539 254.952 231.083 253.496 229.287 253.496H150.504V192.599C150.504 183.691 153.591 174.986 159.195 168.087C163.928 162.261 170.276 157.922 177.341 155.61L187.144 194.039C188.177 198.085 192.763 200.043 196.399 197.997L210.763 189.91L225.126 197.997C228.763 200.044 233.348 198.085 234.381 194.039L244.184 155.61C251.249 157.922 257.597 162.261 262.329 168.086C267.934 174.985 271.021 183.691 271.021 192.598V253.496H242.289C240.493 253.496 239.037 254.952 239.037 256.748C239.037 258.544 240.493 260 242.289 260H271.091C274.639 260 277.525 257.114 277.525 253.566V192.599C277.525 182.202 273.921 172.04 267.377 163.986C262.002 157.37 254.838 152.397 246.851 149.648V149.648ZM254.759 129.167C255.118 126.106 255.058 123.653 255.064 123.401C258.822 123.396 258.114 123.412 258.741 123.392C258.118 125.785 256.678 127.839 254.759 129.167V129.167ZM258.395 106.865C261.161 106.865 263.41 109.115 263.41 111.881C263.41 114.647 261.161 116.897 258.395 116.897H255.064V106.865H258.395V106.865ZM172.964 88.4339C172.964 78.2687 183.617 73.9432 190.608 79.2911C204.168 89.6623 218.784 92.331 234.052 87.2268C237.439 86.0938 241.065 86.5963 243.995 88.6078C246.775 90.516 248.56 93.5997 248.56 97.2948V123.98C248.56 144.821 231.604 161.778 210.762 161.778C189.92 161.778 172.964 144.822 172.964 123.98V88.4339H172.964ZM210.762 179.675L203.875 167.746C206.12 168.098 208.42 168.282 210.762 168.282C213.104 168.282 215.404 168.098 217.649 167.746L210.762 179.675ZM166.46 106.865V116.898H163.13C160.364 116.898 158.114 114.647 158.114 111.881C158.114 109.115 160.364 106.866 163.13 106.866H166.46V106.865ZM162.777 123.392C163.376 123.41 162.267 123.395 166.46 123.401C166.462 123.493 166.379 125.879 166.767 129.183C164.835 127.855 163.396 125.795 162.777 123.392V123.392ZM193.394 192.225L185.212 160.152C188.22 162.283 191.505 164.046 195 165.382L206.303 184.957L193.394 192.225ZM228.131 192.225L215.223 184.957L226.524 165.381C230.019 164.046 233.304 162.283 236.312 160.152L228.131 192.225Z" fill="#F7F7F7"/>
<path d="M191.935 114.292C193.731 114.292 195.187 112.837 195.187 111.04V106.512C195.187 104.715 193.731 103.26 191.935 103.26C190.138 103.26 188.683 104.715 188.683 106.512V111.04C188.683 112.836 190.138 114.292 191.935 114.292V114.292Z" fill="#F7F7F7"/>
<path d="M229.59 114.292C231.387 114.292 232.842 112.837 232.842 111.04V106.512C232.842 104.715 231.387 103.26 229.59 103.26C227.794 103.26 226.338 104.715 226.338 106.512V111.04C226.338 112.836 227.794 114.292 229.59 114.292V114.292Z" fill="#F7F7F7"/>
<path d="M201.886 134.545C204.79 136.343 207.775 137.241 210.763 137.241C213.749 137.241 216.736 136.342 219.64 134.545C221.167 133.6 221.639 131.596 220.693 130.069C219.748 128.541 217.744 128.069 216.217 129.015C212.496 131.318 209.03 131.318 205.309 129.015C203.783 128.069 201.778 128.541 200.833 130.069C199.887 131.595 200.358 133.6 201.886 134.545Z" fill="#F7F7F7"/>
<path d="M257.865 208.609C257.865 206.813 256.41 205.357 254.613 205.357H235.788C233.991 205.357 232.536 206.813 232.536 208.609C232.536 210.406 233.991 211.861 235.788 211.861H254.613C256.41 211.861 257.865 210.406 257.865 208.609Z" fill="#F7F7F7"/>
<path d="M357.601 38H344.401C342.605 38 341.149 39.4556 341.149 41.252C341.149 43.0483 342.605 44.5039 344.401 44.5039H357.601C358.646 44.5039 359.497 45.3542 359.497 46.3996V102.306C359.497 103.352 358.646 104.202 357.601 104.202H287.095C286.05 104.202 285.199 103.352 285.199 102.306V92.9208C285.199 91.7588 284.579 90.6856 283.573 90.1046L279.399 87.6943L283.573 85.2839C284.579 84.7029 285.199 83.6298 285.199 82.4677V46.4C285.199 45.3546 286.05 44.5044 287.095 44.5044H331.399C333.195 44.5044 334.651 43.0488 334.651 41.2524C334.651 39.456 333.195 38.0004 331.399 38.0004H287.095C282.463 38.0004 278.695 41.7684 278.695 46.4V80.5911L271.269 84.8789C270.263 85.46 269.643 86.5331 269.643 87.6951C269.643 88.8572 270.263 89.9303 271.269 90.5113L278.695 94.7992V102.307C278.695 106.939 282.463 110.706 287.095 110.706H357.6C362.232 110.706 366 106.939 366 102.307V46.4C366.001 41.7684 362.233 38 357.601 38V38Z" fill="#F7F7F7"/>
<path d="M323.459 58.0043C321.381 56.2851 318.115 54.4414 313.662 54.4414C306.346 54.4414 300.614 60.7485 300.614 68.7995C300.614 81.2974 314.011 89.9012 321.997 93.9172C322.918 94.3802 324.002 94.3785 324.919 93.9172C332.905 89.9012 346.302 81.2978 346.302 68.7995C346.302 60.7485 340.57 54.4414 333.254 54.4414C328.802 54.4414 325.536 56.2851 323.459 58.0043V58.0043ZM339.799 68.7999C339.799 75.0922 333.867 81.8012 323.458 87.3504C313.05 81.8012 307.118 75.0918 307.118 68.7999C307.118 64.9925 309.412 60.9458 313.662 60.9458C318.221 60.9458 320.627 64.3152 320.759 64.5043C321.362 65.4031 322.375 65.9434 323.459 65.9434C324.552 65.9434 325.573 65.3931 326.175 64.48C326.198 64.4449 328.631 60.9458 333.255 60.9458C337.505 60.9453 339.799 64.9921 339.799 68.7999Z" fill="#F7F7F7"/>
<path d="M214.015 204.85C214.015 203.053 212.559 201.598 210.763 201.598C208.966 201.598 207.511 203.053 207.511 204.85V208.912C207.511 210.708 208.966 212.164 210.763 212.164C212.559 212.164 214.015 210.708 214.015 208.912V204.85Z" fill="#F7F7F7"/>
<path d="M214.015 223.514C214.015 221.717 212.559 220.262 210.763 220.262C208.966 220.262 207.511 221.717 207.511 223.514V227.576C207.511 229.372 208.966 230.828 210.763 230.828C212.559 230.828 214.015 229.372 214.015 227.576V223.514Z" fill="#F7F7F7"/>
<path d="M210.763 238.924C208.966 238.924 207.511 240.379 207.511 242.176V246.239C207.511 248.035 208.966 249.491 210.763 249.491C212.559 249.491 214.015 248.035 214.015 246.239V242.176C214.015 240.38 212.559 238.924 210.763 238.924Z" fill="#F7F7F7"/>
</svg>