<svg xmlns="http://www.w3.org/2000/svg" width="868" height="514" viewBox="0 0 868 514" fill="none">
<path d="M255 66.8555C209.639 66.8555 172.867 103.628 172.867 148.989C172.867 194.35 209.639 231.122 255 231.122C300.361 231.122 337.133 194.35 337.133 148.989C337.082 103.649 300.339 66.9068 255 66.8555ZM255 223.655C213.763 223.655 180.333 190.226 180.333 148.989C180.333 107.751 213.763 74.3221 255 74.3221C296.237 74.3221 329.667 107.751 329.667 148.989C329.62 190.206 296.218 223.608 255 223.655Z" fill="#F7F7F7"/>
<path d="M255 78.0547C215.825 78.0547 184.067 109.813 184.067 148.988C184.067 188.163 215.825 219.921 255 219.921C294.175 219.921 325.933 188.163 325.933 148.988C325.89 109.83 294.158 78.0976 255 78.0547ZM307.05 112.775C312.275 120.264 315.813 128.798 317.418 137.788H286.64C286.247 136.682 285.795 135.598 285.289 134.54L307.05 112.775ZM302.372 106.898L281.227 128.04C279.667 126.092 277.896 124.321 275.948 122.761L297.09 101.616C298.952 103.272 300.716 105.036 302.372 106.898ZM281.133 148.988C281.133 163.421 269.433 175.121 255 175.121C240.567 175.121 228.867 163.421 228.867 148.988C228.867 134.555 240.567 122.855 255 122.855C269.426 122.871 281.117 134.561 281.133 148.988ZM291.213 96.9379L269.448 118.699C268.39 118.193 267.306 117.741 266.2 117.348V86.5704C275.19 88.1753 283.724 91.7126 291.213 96.9379ZM251.267 85.7118C252.51 85.6371 253.738 85.5214 255 85.5214C256.262 85.5214 257.49 85.6371 258.733 85.7118V115.608C256.253 115.314 253.747 115.314 251.267 115.608V85.7118ZM243.8 86.5704V117.348C242.694 117.741 241.61 118.193 240.552 118.699L218.787 96.9379C226.276 91.7126 234.81 88.1753 243.8 86.5704ZM212.91 101.616L234.052 122.761C232.104 124.321 230.333 126.092 228.773 128.04L207.628 106.898C209.284 105.036 211.048 103.272 212.91 101.616ZM202.95 112.775L224.711 134.54C224.205 135.598 223.753 136.682 223.36 137.788H192.582C194.187 128.798 197.725 120.264 202.95 112.775ZM191.533 148.988C191.533 147.726 191.649 146.498 191.724 145.255H221.62C221.326 147.735 221.326 150.241 221.62 152.721H191.724C191.649 151.478 191.533 150.25 191.533 148.988ZM202.95 185.201C197.725 177.712 194.187 169.178 192.582 160.188H223.36C223.753 161.294 224.205 162.378 224.711 163.436L202.95 185.201ZM207.628 191.078L228.773 169.936C230.333 171.884 232.104 173.655 234.052 175.215L212.91 196.36C211.048 194.703 209.284 192.94 207.628 191.078ZM243.8 211.406C234.81 209.801 226.276 206.263 218.787 201.038L240.552 179.277C241.61 179.783 242.694 180.235 243.8 180.628V211.406V211.406ZM258.733 212.264C257.49 212.339 256.262 212.455 255 212.455C253.738 212.455 252.51 212.339 251.267 212.264V182.368C253.747 182.662 256.253 182.662 258.733 182.368V212.264ZM266.2 211.406V180.628C267.306 180.235 268.39 179.783 269.448 179.277L291.213 201.038C283.724 206.263 275.19 209.8 266.2 211.406ZM297.09 196.36L275.948 175.215C277.896 173.655 279.667 171.884 281.227 169.936L302.372 191.078C300.716 192.94 298.952 194.703 297.09 196.36ZM307.05 185.201L285.289 163.436C285.795 162.378 286.247 161.294 286.64 160.188H317.418C315.813 169.177 312.275 177.712 307.05 185.201ZM288.38 152.721C288.674 150.241 288.674 147.735 288.38 145.255H318.276C318.351 146.498 318.467 147.726 318.467 148.988C318.467 150.25 318.351 151.478 318.276 152.721H288.38Z" fill="#F7F7F7"/>
<path d="M366.291 136.546L366.272 136.393C365.409 128.722 363.749 121.162 361.318 113.836C361.292 113.757 361.269 113.687 361.239 113.608C358.817 106.349 355.651 99.3594 351.794 92.75C351.718 92.59 351.629 92.4364 351.529 92.2908C347.679 85.7463 343.176 79.6087 338.089 73.9714C337.965 73.8076 337.826 73.655 337.675 73.5159C332.569 67.9322 326.913 62.8782 320.793 58.4295C320.611 58.2708 320.415 58.1308 320.206 58.0114C314.032 53.5794 307.422 49.7882 300.479 46.6956C300.386 46.6471 300.293 46.606 300.196 46.565C293.122 43.4276 285.739 41.0378 278.169 39.4343H278.147C261.748 35.9623 244.777 36.2255 228.493 40.2034L228.355 40.237C220.833 42.0663 213.522 44.6764 206.541 48.0247L206.467 48.0695C199.586 51.4001 193.065 55.4274 187.005 60.0871C186.789 60.2238 186.587 60.383 186.404 60.5612C180.476 65.1691 175.023 70.358 170.126 76.0508C169.927 76.2342 169.749 76.4396 169.596 76.6631C164.667 82.4647 160.339 88.7516 156.679 95.4268C156.642 95.4903 156.604 95.55 156.571 95.6135C152.88 102.408 149.907 109.569 147.7 116.979L147.659 117.121C145.466 124.51 144.046 132.108 143.422 139.79C143.422 139.898 143.422 139.999 143.399 140.107C143.153 143.042 143 146.002 143 148.989C143.011 153.703 143.317 158.411 143.918 163.086C143.918 163.187 143.941 163.28 143.956 163.377C144.936 171.013 146.708 178.527 149.242 185.796C149.265 185.867 149.287 185.934 149.313 186.005C151.859 193.269 155.149 200.25 159.132 206.837C159.18 206.93 159.233 207.016 159.289 207.102C163.254 213.589 167.864 219.66 173.05 225.22C173.214 225.44 173.405 225.639 173.617 225.813C178.738 231.237 184.384 236.139 190.473 240.448C190.676 240.627 190.897 240.784 191.134 240.915C203.806 249.764 218.182 255.878 233.347 258.868H233.406C240.519 260.272 247.75 260.982 255 260.989C255.519 260.989 256.03 260.955 256.546 260.952C256.594 260.952 256.639 260.978 256.684 260.978C256.729 260.978 256.799 260.944 256.859 260.94C264.568 260.818 272.243 259.898 279.763 258.196C279.875 258.174 279.983 258.152 280.095 258.118C287.443 256.43 294.599 253.998 301.454 250.86C301.54 250.834 301.611 250.782 301.697 250.752C308.816 247.478 315.573 243.466 321.857 238.783C321.997 238.69 322.132 238.588 322.26 238.477C328.252 233.953 333.778 228.843 338.757 223.223C338.958 223.035 339.138 222.828 339.295 222.603C344.264 216.92 348.65 210.751 352.384 204.19C352.482 204.048 352.567 203.898 352.642 203.742C360.264 190.224 364.97 175.259 366.455 159.812V159.719C366.813 156.187 367 152.61 367 148.989C366.994 144.831 366.757 140.677 366.291 136.546ZM359.16 157.549L352.246 163.243C350.654 164.554 350.427 166.908 351.738 168.499C353.049 170.091 355.403 170.318 356.995 169.007L357.7 168.425C357.035 171.958 356.186 175.455 355.158 178.9L347.195 183.056C345.381 184.036 344.705 186.301 345.685 188.115C346.645 189.891 348.844 190.582 350.648 189.674L351.47 189.245C350.08 192.569 348.517 195.817 346.788 198.978L338.153 201.39C336.165 201.938 334.998 203.994 335.547 205.981C335.993 207.6 337.467 208.722 339.146 208.722C339.487 208.72 339.826 208.672 340.154 208.58L340.975 208.352C338.925 211.31 336.723 214.16 334.379 216.89L325.504 217.458C323.443 217.523 321.824 219.247 321.889 221.309C321.954 223.37 323.678 224.989 325.74 224.924H325.979L326.8 224.872C324.196 227.339 321.469 229.672 318.628 231.861L309.813 230.577C307.772 230.28 305.876 231.694 305.58 233.735C305.283 235.776 306.697 237.672 308.738 237.969L309.612 238.096C306.556 239.972 303.406 241.69 300.174 243.244L291.74 240.138C289.805 239.425 287.659 240.416 286.947 242.352C286.234 244.287 287.225 246.433 289.16 247.145L290.027 247.463C286.637 248.67 283.186 249.701 279.689 250.55L272.088 245.768C270.342 244.671 268.036 245.197 266.94 246.944C265.843 248.69 266.369 250.995 268.116 252.092L268.862 252.57C265.295 253.047 261.705 253.338 258.107 253.443L251.704 247.212C250.224 245.777 247.859 245.812 246.423 247.293C244.987 248.773 245.023 251.138 246.503 252.574L247.149 253.197C243.566 252.929 239.998 252.476 236.461 251.842L231.451 244.405C230.295 242.697 227.973 242.251 226.266 243.407C224.565 244.559 224.114 246.868 225.257 248.575L225.768 249.322C222.313 248.314 218.913 247.128 215.58 245.768L212.22 237.457C211.46 235.541 209.29 234.603 207.373 235.363C205.457 236.124 204.519 238.294 205.279 240.21C205.286 240.226 205.292 240.241 205.299 240.257L205.635 241.089C202.463 239.383 199.381 237.514 196.402 235.489L194.838 226.682C194.545 224.642 192.653 223.224 190.612 223.517C188.571 223.811 187.154 225.702 187.447 227.743C187.459 227.826 187.474 227.907 187.491 227.989L187.637 228.814C184.892 226.492 182.268 224.031 179.774 221.441L180.062 212.555C180.118 210.502 178.505 208.789 176.452 208.721C174.445 208.604 172.722 210.135 172.605 212.142C172.601 212.204 172.599 212.266 172.599 212.328L172.573 213.16C170.365 210.335 168.304 207.398 166.398 204.361L168.529 195.692C169.15 193.726 168.06 191.629 166.093 191.008C164.127 190.387 162.03 191.478 161.409 193.444C161.361 193.597 161.322 193.753 161.294 193.911L161.074 194.792C159.483 191.572 158.061 188.271 156.814 184.903L160.726 176.79C161.557 174.903 160.702 172.7 158.815 171.869C157.02 171.078 154.92 171.811 154.006 173.546L153.603 174.375C152.73 170.88 152.039 167.342 151.535 163.776L157.023 156.682C158.284 155.05 157.983 152.705 156.351 151.445C154.719 150.184 152.374 150.485 151.113 152.117L150.564 152.83C150.519 151.553 150.467 150.276 150.467 148.988C150.467 146.655 150.572 144.347 150.721 142.051L157.56 136.246C159.131 134.906 159.317 132.547 157.977 130.977C156.636 129.406 154.277 129.22 152.707 130.56L152.013 131.146C152.628 127.603 153.424 124.095 154.398 120.633L162.287 116.362C164.102 115.383 164.78 113.117 163.801 111.302C162.821 109.487 160.556 108.808 158.74 109.788L157.933 110.226C159.272 106.883 160.782 103.612 162.458 100.426L171.045 97.8908C172.975 97.1675 173.954 95.0157 173.231 93.0846C172.579 91.3449 170.747 90.349 168.932 90.749L168.092 90.9954C170.092 88.0059 172.244 85.1214 174.539 82.3527L183.439 81.6471C185.501 81.4842 187.041 79.6806 186.878 77.6188C186.715 75.5571 184.911 74.0176 182.85 74.1804L182.021 74.2476C184.59 71.7384 187.286 69.3635 190.1 67.1319L198.925 68.278C199.086 68.299 199.248 68.3093 199.411 68.3079C201.472 68.2673 203.11 66.5635 203.07 64.5022C203.034 62.6799 201.688 61.1497 199.885 60.8823L199.041 60.774C202.066 58.8462 205.189 57.0757 208.397 55.469L216.838 58.4332C218.794 59.0852 220.908 58.0282 221.56 56.0719C222.198 54.159 221.201 52.0856 219.309 51.3884L218.432 51.0823C221.796 49.8148 225.224 48.7247 228.702 47.8156L236.401 52.4898C236.983 52.8454 237.652 53.033 238.334 53.0311C240.396 53.0306 242.067 51.3586 242.067 49.2968C242.066 47.9948 241.388 46.7871 240.276 46.1095L239.469 45.6204C244.113 44.9326 248.798 44.5588 253.492 44.5004L259.838 50.8471C261.321 52.2798 263.685 52.2387 265.117 50.7556C266.515 49.309 266.515 47.0148 265.117 45.5682L264.471 44.9223C268.052 45.2434 271.613 45.7492 275.141 46.438L280.043 53.9682C281.214 55.6654 283.539 56.0929 285.236 54.9225C286.869 53.7964 287.336 51.5905 286.3 49.8988L285.781 49.1036C289.225 50.1709 292.611 51.4169 295.925 52.837L299.165 61.2183C299.852 63.1624 301.984 64.1821 303.929 63.4956C305.873 62.8092 306.892 60.6765 306.206 58.7324C306.182 58.6642 306.156 58.597 306.128 58.5303L305.811 57.709C308.955 59.4674 312.007 61.3863 314.954 63.4583L316.376 72.2578C316.669 74.0624 318.225 75.39 320.053 75.3938C320.254 75.3942 320.456 75.3779 320.654 75.3452C322.69 75.0172 324.074 73.101 323.746 71.0654C323.746 71.0645 323.746 71.064 323.746 71.0631L323.615 70.2492C326.322 72.6045 328.906 75.097 331.358 77.7159L330.929 86.6012C330.829 88.6606 332.418 90.4106 334.478 90.51C334.478 90.51 334.479 90.51 334.479 90.51H334.662C336.656 90.5124 338.3 88.9476 338.395 86.9559L338.436 86.0935C340.602 88.9532 342.619 91.9231 344.481 94.99L342.207 103.655C341.684 105.649 342.875 107.689 344.869 108.213C345.18 108.295 345.5 108.336 345.821 108.337C347.518 108.336 349.002 107.19 349.431 105.548L349.659 104.678C351.18 107.927 352.532 111.253 353.709 114.642L349.685 122.654C348.757 124.496 349.498 126.742 351.341 127.67C353.183 128.597 355.429 127.856 356.356 126.014L356.767 125.196C357.586 128.702 358.223 132.247 358.675 135.818L353.075 142.825C351.789 144.438 352.054 146.787 353.666 148.072C355.279 149.358 357.628 149.093 358.914 147.481L359.47 146.783C359.47 147.529 359.526 148.253 359.526 148.996C359.533 151.875 359.384 154.723 359.16 157.549Z" fill="#F7F7F7"/>
<path d="M245.667 134.055C242.574 134.055 240.067 136.562 240.067 139.655C240.067 142.747 242.574 145.255 245.667 145.255C248.759 145.255 251.267 142.747 251.267 139.655C251.267 136.562 248.759 134.055 245.667 134.055ZM245.667 141.521C244.636 141.521 243.8 140.686 243.8 139.655C243.8 138.624 244.636 137.788 245.667 137.788C246.698 137.788 247.533 138.624 247.533 139.655C247.533 140.686 246.698 141.521 245.667 141.521Z" fill="#F7F7F7"/>
<path d="M264.333 134.055C261.241 134.055 258.733 136.562 258.733 139.655C258.733 142.747 261.241 145.255 264.333 145.255C267.426 145.255 269.933 142.747 269.933 139.655C269.933 136.562 267.426 134.055 264.333 134.055ZM264.333 141.521C263.303 141.521 262.467 140.686 262.467 139.655C262.467 138.624 263.303 137.788 264.333 137.788C265.364 137.788 266.2 138.624 266.2 139.655C266.2 140.686 265.364 141.521 264.333 141.521Z" fill="#F7F7F7"/>
<path d="M264.333 152.723C261.241 152.723 258.733 155.23 258.733 158.323C258.733 161.415 261.241 163.923 264.333 163.923C267.426 163.923 269.933 161.415 269.933 158.323C269.933 155.23 267.426 152.723 264.333 152.723ZM264.333 160.189C263.303 160.189 262.467 159.354 262.467 158.323C262.467 157.292 263.303 156.456 264.333 156.456C265.364 156.456 266.2 157.292 266.2 158.323C266.2 159.354 265.364 160.189 264.333 160.189Z" fill="#F7F7F7"/>
<path d="M245.667 152.723C242.574 152.723 240.067 155.23 240.067 158.323C240.067 161.415 242.574 163.923 245.667 163.923C248.759 163.923 251.267 161.415 251.267 158.323C251.267 155.23 248.759 152.723 245.667 152.723ZM245.667 160.189C244.636 160.189 243.8 159.354 243.8 158.323C243.8 157.292 244.636 156.456 245.667 156.456C246.698 156.456 247.533 157.292 247.533 158.323C247.533 159.354 246.698 160.189 245.667 160.189Z" fill="#F7F7F7"/>
</svg>