<svg xmlns="http://www.w3.org/2000/svg" width="1920" height="1088" viewBox="0 0 1920 1088" fill="none">
<rect width="1920" height="1088" fill="#1C1C1C"/>
<path fill-rule="evenodd" clip-rule="evenodd" d="M1223.76 778.626V676.25H1181.51V778.626H1223.76ZM1000.09 736.117V677.799H959.137V722.379C959.137 735.336 958.62 738.969 957.843 742.339C954.991 751.672 945.14 755.809 935.035 755.809C921.043 755.809 914.562 750.369 911.969 741.817C911.192 738.973 910.933 735.862 910.674 732.752C910.415 729.382 910.674 725.749 910.674 721.87V677.803H869.205V736.38C869.205 749.605 873.615 759.451 880.868 766.186C893.307 778.371 914.303 782 933.741 782C957.325 782 975.469 778.63 988.426 765.932C995.17 759.447 1000.09 750.895 1000.09 736.117V736.117ZM798.966 728.86C796.913 728.503 794.832 728.331 792.748 728.346H746.097C743.763 728.346 741.17 728.605 739.876 728.86C740.652 728.079 742.21 726.53 743.763 724.454L764.754 689.721C767.606 685.061 768.901 681.95 769.419 680.655C769.936 681.95 771.231 685.061 774.083 689.988L795.596 724.981C796.636 726.53 798.189 728.079 798.966 728.86V728.86ZM877.239 778.626L783.933 638.673H731.583L745.316 655C745.575 655.259 746.097 655.514 746.611 655.781C746.093 656.04 745.575 656.295 745.316 656.553L663.936 778.626H711.105L723.808 757.63C724.325 756.595 724.584 755.555 724.584 755.041C725.102 755.041 726.401 755.555 727.695 755.555H811.927C813.222 755.555 814.257 755.296 814.775 755.041C814.727 755.77 814.908 756.496 815.293 757.117L828.513 778.626H877.239V778.626ZM1170.11 726.016C1170.11 714.608 1165.45 701.388 1150.94 682.985L1115.94 638.669H1067.22L1094.95 669.769C1099.62 674.956 1105.58 679.616 1105.58 679.616C1098.84 675.724 1090.29 674.175 1083.55 674.175C1067.48 674.175 1051.14 677.545 1036.64 685.583C1021.08 694.126 1010.72 708.386 1010.72 727.311C1010.72 741.821 1017.2 752.97 1025.49 761.522C1044.15 780.179 1078.1 781.996 1090.54 781.996C1108.94 781.996 1137.71 777.849 1154.05 763.076C1163.64 754.26 1170.11 742.084 1170.11 726.016V726.016ZM1129.68 727.311C1129.68 737.938 1122.68 745.968 1113.87 750.373C1106.61 754.265 1098.05 755.3 1090.54 755.3C1083.03 755.3 1074.22 753.743 1066.96 750.114C1058.15 745.709 1051.4 737.157 1051.4 727.824C1051.4 716.684 1059.96 707.864 1070.07 703.459C1076.29 700.615 1083.81 699.576 1089.76 699.576C1095.47 699.576 1103.76 700.348 1110.24 702.945C1121.91 707.864 1129.68 717.197 1129.68 727.311ZM1210.34 305C1180 304.951 1150.53 315.189 1126.75 334.043C1102.97 315.188 1073.51 304.95 1043.16 305C1012.81 304.953 983.35 315.191 959.572 334.043C935.796 315.187 906.33 304.949 875.985 305C845.64 304.953 816.175 315.191 792.397 334.043C768.62 315.19 739.155 304.953 708.81 305C634.345 305 574 365.341 574 439.81C574 514.271 634.341 574.62 708.81 574.62C739.155 574.667 768.619 564.429 792.397 545.578C816.175 564.43 845.64 574.668 875.985 574.62C906.33 574.671 935.796 564.433 959.572 545.578C983.35 564.43 1012.81 574.667 1043.16 574.62C1073.51 574.67 1102.97 564.433 1126.75 545.578C1150.53 564.433 1180 574.67 1210.34 574.62C1284.81 574.62 1345.15 514.275 1345.15 439.81C1345.15 365.345 1284.81 305 1210.34 305ZM770.34 523.555C753.162 536.087 731.701 543.735 708.81 543.735C651.365 543.735 604.881 497.255 604.881 439.81C604.881 382.366 651.365 335.881 708.81 335.881C731.701 335.881 753.149 343.534 770.34 356.07C751.399 379.866 741.115 409.396 741.179 439.81C741.193 470.212 751.468 499.72 770.34 523.555V523.555ZM792.402 501.56C779.154 483.702 772.021 462.046 772.064 439.81C772.009 417.573 779.142 395.913 792.402 378.061C805.659 395.914 812.792 417.573 812.739 439.81C812.781 462.046 805.648 483.701 792.402 501.56V501.56ZM937.519 523.555C919.671 536.695 898.077 543.758 875.914 543.704C853.798 543.749 832.252 536.686 814.455 523.555C833.329 499.723 843.604 470.216 843.616 439.815C843.679 409.401 833.396 379.87 814.455 356.074C832.25 342.94 853.797 335.875 875.914 335.921C898.972 335.921 920.275 343.38 937.519 356.074C918.578 379.87 908.294 409.401 908.358 439.815C908.37 470.216 918.645 499.722 937.519 523.555V523.555ZM959.572 501.56C946.324 483.702 939.191 462.046 939.234 439.81C939.181 417.573 946.314 395.914 959.572 378.061C972.832 395.913 979.967 417.573 979.913 439.81C979.956 462.046 972.822 483.702 959.572 501.56V501.56ZM1104.69 523.555C1087.45 536.254 1066.15 543.704 1043.09 543.704C1020.04 543.704 998.873 536.241 981.629 523.555C1000.5 499.724 1010.78 470.216 1010.79 439.815C1010.85 409.401 1000.57 379.87 981.629 356.074C998.873 343.384 1020.04 335.921 1043.09 335.921C1066.15 335.921 1087.45 343.38 1104.69 356.074C1085.75 379.871 1075.47 409.401 1075.53 439.815C1075.55 470.215 1085.82 499.721 1104.69 523.555V523.555ZM1126.75 501.56C1113.51 483.702 1106.37 462.046 1106.42 439.81C1106.36 417.573 1113.49 395.912 1126.75 378.061C1140.01 395.914 1147.15 417.573 1147.09 439.81C1147.13 462.045 1140 483.7 1126.75 501.56ZM1210.34 543.735C1187.44 543.735 1165.99 536.087 1148.81 523.555C1167.68 499.722 1177.96 470.215 1177.97 439.815C1178.03 409.401 1167.75 379.871 1148.81 356.074C1166 343.542 1187.45 335.886 1210.34 335.886C1267.78 335.886 1314.27 382.37 1314.27 439.815C1314.27 497.251 1267.78 543.735 1210.34 543.735Z" fill="white"/>
</svg>