<svg xmlns="http://www.w3.org/2000/svg" width="1920" height="1088" viewBox="0 0 1920 1088" fill="none">
<rect width="1920" height="1088" fill="#1C1C1C"/>
<path fill-rule="evenodd" clip-rule="evenodd" d="M589.774 744.886L589.52 748.954H593.326C596.12 748.954 599.671 749.204 599.671 752.756L598.401 821.548C598.401 824.088 597.131 826.882 592.056 826.882H588.254L588 830.941H613.637V826.882H609.323C606.021 826.882 603.74 825.866 603.74 821.548L605.005 755.55L632.425 826.623H635.214L662.883 754.788L664.153 821.548C664.153 823.829 661.867 826.882 658.316 826.882H652.986V830.941H685.223V826.882H681.413C678.623 826.882 675.321 825.353 675.321 821.797L674.051 753.776C674.051 751.494 676.591 748.954 679.127 748.954H683.949V744.886H660.851L636.988 807.336L613.129 744.886H589.774ZM698.418 799.97H736.598C736.598 781.928 728.627 767.302 711.11 767.302C694.866 767.302 685.621 781.928 685.621 799.97C685.621 818.013 693.338 832.639 711.11 832.639C728.369 832.639 733.449 824.088 736.095 810.405L730.147 810.38C729.639 815.456 726.341 826.882 713.65 827.131C699.184 827.419 698.164 808.856 698.418 799.97ZM767.718 830.941V827.643H765.178C762.892 827.643 758.832 826.881 758.832 822.309V789.057C758.832 778.647 764.162 774.845 769.492 774.845C771.519 774.845 772.793 775.861 772.285 779.667C771.777 783.477 775.079 786.017 777.869 785.759C780.659 785.501 784.215 784.997 783.707 777.889C783.199 770.786 779.139 767.488 772.031 767.488C766.448 767.488 761.876 771.035 760.606 772.813C759.128 774.879 757.308 774.088 757.054 771.806C756.8 769.516 755.784 767.234 753.248 767.996C747.66 769.774 742.584 770.536 738.271 770.79V773.33C748.934 772.818 747.914 778.152 747.914 780.687V822.318C747.914 826.89 743.854 827.652 741.568 827.652H738.017V830.95H767.718V830.941V830.941ZM824.025 771.344C820.283 768.614 815.58 767.052 809.852 767.052C793.609 767.052 784.363 781.678 784.363 799.72C784.363 817.763 792.081 832.296 809.852 832.389C825.592 832.465 829.397 823.575 832.047 809.902L826.095 809.876C825.587 814.952 823.809 826.628 812.388 826.886C797.923 827.199 796.902 808.606 797.156 799.725C797.156 794.137 797.918 771.802 810.102 771.802C820.507 771.802 826.857 779.159 826.857 787.537H830.155V766.214H827.365L824.025 771.344V771.344ZM943.884 817.737V746.918C943.884 744.001 942.36 741.584 939.824 742.346C934.24 744.124 929.16 744.886 924.846 745.14V747.68C932.208 747.176 932.97 749.458 932.97 751.998V773.825C929.668 770.781 925.862 767.733 919.009 767.733C910.377 767.733 894.388 774.587 894.388 798.704C894.388 830.429 912.917 832.465 918.501 832.465C924.084 832.465 931.446 827.902 932.97 825.489C933.097 824.977 933.855 824.346 934.113 825.489C934.367 827.771 936.014 831.204 938.554 830.433C943.411 828.886 948.443 827.95 953.531 827.648V825.108C942.868 825.607 943.884 820.273 943.884 817.737ZM1092.12 794.645V788.798H1058.62V794.645H1092.12ZM1012.67 809.36V830.941H1015.47L1018.01 825.353C1020.55 827.644 1025.87 831.445 1032.72 831.445C1039.58 831.445 1049.23 827.644 1053.03 820.532C1056.84 813.42 1055.06 801.744 1046.43 798.192C1038.88 795.085 1032.24 791.355 1027.14 788.798C1023.08 786.771 1022.1 782.711 1022.57 780.175C1023.33 776.115 1026.89 771.797 1035.01 771.543C1043.13 771.285 1047.19 778.143 1048.21 786.013H1051V765.706H1048.46L1045.67 770.527C1040.33 766.971 1038.05 766.468 1033.23 766.468C1028.4 766.468 1020.28 769.008 1015.71 776.115C1011.14 783.219 1012.41 794.386 1023.32 798.958C1034.24 803.522 1039.32 806.316 1042.36 807.84C1045.41 809.364 1047.19 815.456 1045.16 819.012C1043.13 822.568 1039.32 826.628 1033.23 826.628C1027.14 826.628 1017.48 822.31 1015.2 809.364H1012.67V809.36V809.36ZM1103.55 817.991V755.292C1103.55 748.95 1096.95 748.18 1093.14 748.18V744.882H1131.21C1148.98 744.882 1151.77 757.324 1151.77 764.685C1151.77 772.047 1145.68 782.956 1139.59 784.489C1151.77 787.029 1155.83 796.926 1155.83 805.3C1155.33 830.179 1133.75 830.941 1124.35 830.941H1093.13V827.385C1103.29 827.385 1103.55 821.547 1103.55 817.991V817.991ZM1258.89 784.739V822.309C1258.89 826.881 1254.83 827.643 1252.55 827.643H1251.03V830.941H1278.69V827.643H1276.15C1273.87 827.643 1269.81 826.881 1269.81 822.309V784.997C1269.55 767.987 1254.33 767.484 1248.99 767.484C1243.41 767.484 1237.32 771.031 1236.04 772.809C1234.57 774.875 1232.75 774.083 1232.5 771.802C1232.24 769.511 1231.22 767.23 1228.69 767.992C1223.11 769.77 1218.03 770.532 1213.71 770.786V773.326C1224.37 772.813 1223.35 778.147 1223.35 780.683V822.314C1223.35 826.886 1219.29 827.648 1217.01 827.648H1213.45V830.946H1243.16V827.648H1240.61C1238.33 827.648 1234.26 826.886 1234.26 822.314V789.061C1234.26 783.481 1236.3 774.591 1246.71 773.829C1257.11 773.063 1258.89 779.917 1258.89 784.739V784.739ZM1284.28 786.013L1288.85 768.749H1332L1294.94 827.389H1314.74C1319.31 827.389 1322.86 825.612 1327.69 813.936H1329.72L1325.66 830.946H1281.49L1318.29 772.305H1301.8C1297.74 772.305 1293.16 772.305 1286.81 786.013H1284.28V786.013ZM850.721 799.97H888.901C888.901 781.928 880.926 767.302 863.412 767.302C847.169 767.302 837.923 781.928 837.923 799.97C837.923 818.013 845.645 832.639 863.412 832.639C880.676 832.639 885.752 824.088 888.402 810.405L882.45 810.38C881.942 815.456 878.644 826.882 865.952 827.131C851.487 827.419 850.467 808.856 850.721 799.97ZM966.469 799.97H1004.65C1004.65 781.928 996.682 767.302 979.169 767.302C962.921 767.302 953.675 781.928 953.675 799.97C953.675 818.013 961.397 832.639 979.169 832.639C996.424 832.639 1001.5 824.088 1004.15 810.405L998.202 810.38C997.698 815.456 994.4 826.882 981.7 827.131C967.239 827.419 966.223 808.856 966.469 799.97V799.97ZM1174.12 799.97H1212.29C1212.29 781.928 1204.32 767.302 1186.81 767.302C1170.57 767.302 1161.32 781.928 1161.32 799.97C1161.32 818.013 1169.03 832.639 1186.81 832.639C1204.07 832.639 1209.14 824.088 1211.79 810.405L1205.85 810.38C1205.34 815.456 1202.04 826.882 1189.35 827.131C1174.88 827.419 1173.86 808.856 1174.12 799.97Z" fill="white"/>
<path fill-rule="evenodd" clip-rule="evenodd" d="M698.672 794.891C698.672 789.312 698.164 772.806 711.618 772.806C722.277 772.806 723.801 786.514 723.801 794.891H698.672ZM932.966 810.123C932.712 824.089 925.35 828.402 919.258 828.402C905.551 828.144 906.567 807.333 906.567 798.447C906.567 789.566 907.075 772.048 919.512 773.568C931.95 775.096 932.966 788.296 932.966 796.166V810.123V810.123ZM1114.46 826.883H1127.4C1137.05 826.883 1144.67 819.267 1144.67 806.567C1144.67 793.884 1137.31 788.038 1128.93 788.038H1114.46V826.883V826.883ZM1114.46 783.978H1127.15C1137.05 783.978 1140.35 775.6 1140.35 764.686C1140.35 755.796 1136.55 748.951 1127.15 748.951H1114.46V783.978ZM850.979 794.891C850.979 789.312 850.471 772.806 863.924 772.806C874.588 772.806 876.108 786.514 876.108 794.891H850.979ZM966.727 794.891C966.727 789.312 966.223 772.806 979.677 772.806C990.336 772.806 991.856 786.514 991.856 794.891H966.727V794.891ZM1174.37 794.891C1174.37 789.312 1173.86 772.806 1187.32 772.806C1197.98 772.806 1199.51 786.514 1199.51 794.891H1174.37Z" fill="#1C1C1C"/>
<path fill-rule="evenodd" clip-rule="evenodd" d="M957.371 689.108C836.433 689.1 738.398 592.131 738.419 472.527C738.432 352.926 836.493 255.983 957.43 256C1078.37 256.017 1176.4 352.986 1176.38 472.586C1176.37 592.19 1078.31 689.134 957.371 689.108V689.108Z" fill="white"/>
<path fill-rule="evenodd" clip-rule="evenodd" d="M777.818 576.455L781.667 573.403C770.351 552.668 760.386 521.545 759.827 520.893C759.573 521.773 764.141 550.683 777.818 576.455Z" fill="white"/>
<path fill-rule="evenodd" clip-rule="evenodd" d="M960.428 277.518L990.179 450.683L959.107 468.933L958.032 277.59C958.032 275.291 956.406 275.313 956.169 277.59L938.529 459.094L925.473 451.512L953.481 277.56C845.031 278.238 759.391 365.313 759.378 472.929C759.374 506.918 770.067 542.567 785.455 570.423L922.09 456.762L935.188 464.263L781.717 574.592C778.034 577.154 779.139 578.436 783.216 576.171L954.535 477.23L954.531 512.858L789.13 575.951C823.725 632.547 885.15 668.572 956.8 668.581C1028.35 668.589 1090.77 632.475 1125.42 576.027L960.237 512.976V477.34L1125 572.37C1128.74 574.478 1129.87 573.331 1126.34 570.808L979.583 464.352L992.673 456.846L1129.26 570.613C1144.89 542.601 1155.25 506.846 1155.26 472.565C1155.28 366.342 1066.93 280.418 960.428 277.518V277.518Z" fill="#1C1C1C"/>
<path fill-rule="evenodd" clip-rule="evenodd" d="M1166.99 434.858C1158.7 388.342 1134.84 353.976 1134.84 353.976C1097 297.859 1032.52 261.236 957.816 261.228C839.257 261.211 743.41 357.316 743.393 475.883C743.389 503.806 750.513 530.48 760.208 554.957C764.661 566.193 783.559 598.599 784.414 599.293C784.325 598.269 770.99 572.34 763.975 555.093C757.964 540.306 750.48 510.833 750.484 476.653C750.497 361.634 843.753 268.403 958.764 268.42C1018.86 268.428 1075.33 297.77 1109.98 335.806C1117.36 343.909 1123.75 351.262 1129.46 358.738C1129.46 358.734 1144.53 372.835 1166.99 434.858V434.858Z" fill="#1C1C1C"/>
<path fill-rule="evenodd" clip-rule="evenodd" d="M1160.28 472.01C1160.28 507.612 1149.13 544.506 1132.68 573.449C1133.6 575.837 1132.74 577.064 1129.95 577.771C1094.12 635.51 1030.12 673.292 957.265 673.284C888.914 673.275 834.236 636.555 816.951 617.581C802.922 602.185 792.525 590.67 784.494 577.598L779.791 579.409C810.542 638.215 875.054 680.95 957.337 680.959C1074.12 680.976 1167.36 586.543 1167.37 472.56C1167.37 472.56 1170.99 435.925 1139.18 383.787C1139.18 383.791 1161.36 424.156 1160.28 472.01Z" fill="#1C1C1C"/>
<path fill-rule="evenodd" clip-rule="evenodd" d="M943.748 469.347L914.606 493.143C914.606 493.143 908.455 498.223 917.281 493.676L952.571 474.427L943.748 469.347ZM946.686 463.467L955.242 333.534C955.242 333.534 956.042 317.76 956.846 333.8C957.634 349.565 955.242 469.081 955.242 469.081L946.686 463.467V463.467ZM962.193 474.427L971.553 469.081L1082.23 543.143C1082.23 543.143 1090.53 548.756 1081.17 543.943L962.193 474.427Z" fill="white"/>
</svg>