<svg xmlns="http://www.w3.org/2000/svg" width="1920" height="1088" viewBox="0 0 1920 1088" fill="none">
<rect width="1920" height="1088" fill="#1C1C1C"/>
<path fill-rule="evenodd" clip-rule="evenodd" d="M959.617 259C1116.27 259 1244 386.741 1244 543.617C1244 700.028 1116.26 828.004 959.617 828.004C802.972 828.004 675 700.028 675 543.617C674.996 386.737 802.972 259 959.617 259V259Z" fill="white"/>
<path fill-rule="evenodd" clip-rule="evenodd" d="M959.617 295.131C1096.21 295.131 1207.88 406.786 1207.88 543.621C1207.88 680.221 1096.22 791.642 959.617 791.642C823.016 791.642 711.365 680.218 711.365 543.617C711.365 406.786 823.016 295.131 959.617 295.131V295.131ZM793.412 410.049L882.459 641.055L915.092 556.671H1000.64L1033.27 641.055L1123.25 407.251C1107.37 388.095 1088.28 371.848 1066.84 359.236L1004.37 531.264H916.253L853.554 358.533C830.477 371.82 810.198 389.305 793.412 410.049V410.049ZM1159.15 468.093L1057.75 732.665C1125.82 697 1172.67 625.672 1172.67 543.621C1172.67 517.046 1168.01 491.635 1159.15 468.093V468.093ZM1013.46 749.912L1012.77 744.55L957.749 601.892L902.738 744.55L902.507 748.981C920.688 754.105 939.803 756.673 959.617 756.673C978.263 756.673 996.213 754.343 1013.46 749.912ZM857.283 730.332L758.45 472.755C750.524 494.899 746.327 518.676 746.327 543.617C746.327 623.804 791.083 694.198 857.283 730.332V730.332ZM959.617 330.328C978.263 330.328 996.678 332.661 1014.16 337.319L960.316 486.274L906.236 337.089C923.67 332.577 941.608 330.306 959.617 330.328Z" fill="#1C1C1C"/>
</svg>