<svg xmlns="http://www.w3.org/2000/svg" width="1920" height="1088" viewBox="0 0 1920 1088" fill="none">
<rect width="1920" height="1088" fill="#1C1C1C"/>
<path fill-rule="evenodd" clip-rule="evenodd" d="M379 470.862V492.096H413.828L481.987 619.922H565.859L634.018 491.885L668.84 491.667L668.915 470.862H564.722V491.742H592.47L544.34 582.614L492.281 492.059L530.254 491.885L530.186 470.862H379ZM1051.18 470.862V492.096H1086L1154.17 619.922H1238.03L1306.19 491.885L1341.03 491.667L1341.08 470.862H1236.91V491.742H1264.64L1216.52 582.614L1164.46 492.059L1202.43 491.885L1202.37 470.862H1051.18V470.862ZM879.811 470.862V492.096H914.64L914.689 596.457H877.984V619.73L914.714 619.922H1088.6V550.539H1065.94C1064.71 587.276 1032.84 596.507 1019.42 596.507C1007.12 596.507 983.283 596.457 983.283 596.457V492.059L1017.58 491.885L1017.53 470.862H879.811ZM762.571 466.586C703.376 466.586 655.395 501.831 655.395 545.293C655.395 588.755 703.376 624 762.571 624C821.766 624 869.754 588.755 869.754 545.293C869.754 501.831 821.766 466.586 762.571 466.586ZM761.036 600.833C740.169 600.833 723.261 575.838 723.261 544.988C723.261 514.132 740.169 489.119 761.036 489.119C781.897 489.119 798.817 514.132 798.817 544.988C798.817 575.838 781.897 600.833 761.036 600.833ZM1434.76 464C1375.57 464 1327.59 499.81 1327.59 543.994C1327.59 588.158 1375.57 623.975 1434.76 623.975C1493.95 623.975 1541.94 588.158 1541.94 543.994C1541.94 499.817 1493.95 464 1434.76 464ZM1433.22 600.435C1412.37 600.435 1395.45 575.024 1395.45 543.671C1395.45 512.317 1412.37 486.9 1433.22 486.9C1454.09 486.9 1470.99 512.311 1470.99 543.671C1470.99 575.024 1454.09 600.435 1433.22 600.435Z" fill="white"/>
</svg>