<svg xmlns="http://www.w3.org/2000/svg" width="1920" height="1088" viewBox="0 0 1920 1088" fill="none">
<rect width="1920" height="1088" fill="#1C1C1C"/>
<path d="M440.86 575.67C440.86 578.106 441.021 580.297 441.021 582.733C441.021 625.129 429.205 639.995 404.421 639.995C392.926 639.995 384.558 635.855 378.323 626.109C367.82 610.028 367 583.713 367 541.804C367 506.718 368.641 483.568 373.235 471.873C379.963 454.822 389.485 448 404.421 448C429.532 448 440.201 466.518 440.367 509.155H418.043V504.774C418.043 485.036 413.776 475.289 404.914 475.289C390.632 475.289 390.632 494.541 390.632 541.322C390.632 592.49 390.632 612.229 404.748 612.229C415.743 612.229 418.536 606.129 418.536 578.112V575.675H440.86V575.67ZM528.348 452.386H551.16V524.261H582.672V452.386H605.484V635.614H582.672V552.531H551.16V635.614H528.348V452.386ZM718.561 535.223V477.967H729.32C742.573 477.967 748.031 483.086 748.031 502.579C748.031 523.046 743.817 535.223 731.191 535.223H718.561ZM697.507 635.614H718.555V560.563H726.039C741.635 560.563 748.025 564.467 748.025 588.345V593.218L748.336 607.109C748.492 618.564 748.803 627.823 750.363 635.62H776.246C771.882 628.797 770.633 620.267 770.322 608.33L769.695 589.32C769.229 565.688 769.539 552.531 753.483 545.949C764.243 543.513 770.011 524.267 770.011 500.388C770.011 466.277 760.19 452.391 736.638 452.391H697.502V635.614H697.507ZM881.951 563.246L849.618 452.386H875.062L893.773 526.692L912.156 452.386H936.94L905.101 563.246V635.614H881.957V563.246H881.951ZM1038.54 577.748V582.985C1038.54 602.718 1040.67 612.223 1051.18 612.223C1061.02 612.223 1066.11 604.667 1066.11 590.535C1066.11 577.378 1061.52 571.284 1052 561.297L1040.17 548.873C1024.42 532.546 1016.7 523.046 1016.7 497.218C1016.7 466.523 1029.83 448.005 1051.34 448.005C1074.15 448.005 1086.79 467.01 1086.79 501.85C1086.79 504.046 1086.79 503.468 1086.62 505.658H1064.8V503.553C1064.8 484.061 1060.86 475.771 1050.68 475.771C1043.29 475.771 1038.86 482.594 1038.86 494.048C1038.86 505.744 1044.44 511.104 1053.3 519.875L1065.94 532.546C1082.19 548.627 1089.08 561.056 1089.08 587.858C1089.08 620.995 1075.95 640 1051.99 640C1027.21 640 1015.22 621.241 1015.22 582.256C1015.22 578.845 1015.38 581.651 1015.56 577.753H1038.54V577.748ZM1179.42 452.386H1202.4V604.426H1241.24V635.614H1179.42V452.386ZM1323.1 452.386H1386.45V482.845H1345.91V525.241H1383.66V554.239H1345.91V604.673H1387.44V635.62H1323.1V452.386ZM1496.98 533.376V478.797H1505.06C1518.32 478.797 1521.92 483.916 1521.92 503.409C1521.92 523.876 1519.57 533.376 1506.93 533.376H1496.98ZM1473.26 636.444H1496.98V561.393H1504.47C1520.06 561.393 1521.92 565.297 1521.92 589.175V594.048L1522.24 607.939C1522.4 619.394 1522.71 628.653 1524.27 636.45H1552C1547.64 629.627 1546.39 621.097 1546.08 609.16L1545.45 590.15C1544.99 566.518 1545.3 553.361 1529.24 546.779C1540 544.343 1545.77 525.097 1545.77 501.218C1545.77 467.107 1535.95 453.221 1512.4 453.221H1473.26V636.444H1473.26Z" fill="white"/>
</svg>