<svg xmlns="http://www.w3.org/2000/svg" width="1920" height="1088" viewBox="0 0 1920 1088" fill="none">
<rect width="1920" height="1088" fill="#1C1C1C"/>
<path d="M1267.42 556.62C1266.67 598.111 1275.6 620.086 1309.69 620.086C1343.73 620.086 1348.61 582.651 1348.61 554.164C1348.61 525.659 1342.15 497.986 1306.39 497.986C1284.46 497.986 1268.26 515.087 1267.42 556.62ZM1198.44 730V449.152H1268.26V460.543C1268.26 475.739 1274.37 469.473 1279.29 463.551C1280.11 462.562 1295.67 443.455 1330.71 443.455C1365.65 443.455 1420 467.87 1420 554.165C1420 620.914 1387.58 669.748 1331.58 669.748C1300.72 669.748 1282.88 657.56 1278.8 652.641C1274.72 647.79 1269.05 646.944 1269.05 652.641V729.999H1198.44V730ZM658.837 358H734.305V556.62C734.305 590.786 719.682 662.441 615.025 662.441C510.355 662.441 499 595.654 499 558.237V521.61H572.032V557.41C572.032 579.386 586.642 599.727 614.213 599.727C641.797 599.727 658.837 584.268 658.837 558.237V358ZM892.131 526.492C892.131 506.119 880.794 486.587 854.828 486.587C829.674 486.587 820.742 504.478 820.742 526.492H892.131ZM847.55 441.012C906.816 441.012 958.723 463.796 958.723 568.808H818.361C818.361 602.184 832.141 616.026 856.483 616.026C880.831 616.026 888.939 596.475 888.939 596.475H957.929C957.929 626.604 916.541 667.305 854.047 666.496C782.663 666.496 747.766 613.582 747.766 559.04C747.766 504.478 778.578 441.012 847.55 441.012ZM1116.52 526.492C1116.52 506.119 1105.17 486.587 1079.2 486.587C1054.06 486.587 1045.11 504.478 1045.11 526.492H1116.52ZM1071.94 441.012C1131.2 441.012 1183.09 463.796 1183.09 568.808H1042.73C1042.73 602.184 1056.53 616.026 1080.89 616.026C1105.21 616.026 1113.33 596.475 1113.33 596.475H1182.32C1182.32 626.604 1140.93 667.305 1078.45 666.496C1007.03 666.496 972.133 613.582 972.133 559.04C972.133 504.478 1002.98 441.012 1071.94 441.012Z" fill="white"/>
</svg>