<svg xmlns="http://www.w3.org/2000/svg" xmlns:xlink="http://www.w3.org/1999/xlink" version="1.1" x="0px" y="0px" viewBox="0 0 90 90" enable-background="new 0 0 90 90" xml:space="preserve" style="max-width:100%" height="100%"><path d="M62.324,61.015c-1.153-1.149-2.702-1.673-4.244-1.592l0.006-0.005c-6.902,0.294-9.089,5.729-9.581,7.308  c-22.71-7.437-24.794-24.84-24.794-24.84l4.399-6.17l-4.399,6.17c4.495-1.849,6.233-5.188,6.907-7.56  c0.359-0.874,0.502-1.81,0.425-2.724c0,0,0,0.006,0,0.017c0-0.009,0-0.017,0-0.017v0c-0.107-1.272-0.636-2.5-1.591-3.457  l-11.087-11.09c-2.203-2.203-5.862-2.136-8.151,0.153l-3.125,3.143l0.085,0.085c-1.048,1.337-1.923,2.879-2.575,4.542  c-0.601,1.583-0.975,3.093-1.146,4.607C1.99,41.723,7.536,52.815,22.588,67.867C43.394,88.672,60.161,87.1,60.885,87.023  c1.575-0.188,3.085-0.565,4.62-1.161c1.648-0.644,3.189-1.518,4.525-2.564l0.068,0.061l3.166-3.1  c2.284-2.289,2.35-5.946,0.148-8.156L62.324,61.015z M31.043,31.664c0-0.011,0-0.022,0-0.03  C31.043,31.643,31.043,31.652,31.043,31.664z M30.822,33.494c0-0.002,0.001-0.005,0.001-0.007  C30.823,33.49,30.823,33.492,30.822,33.494z M30.873,33.236L30.873,33.236L30.873,33.236z M31.042,31.735c0-0.01,0-0.02,0.001-0.029  C31.042,31.716,31.042,31.725,31.042,31.735z M82.625,55.072c-2.29,0-4.147-1.857-4.147-4.147c0-21.895-17.813-39.709-39.709-39.709  c-2.29,0-4.147-1.857-4.147-4.147s1.857-4.147,4.147-4.147c12.822,0,24.877,4.993,33.943,14.06  c9.066,9.067,14.06,21.121,14.06,33.943C86.772,53.215,84.916,55.072,82.625,55.072z M66.353,53.148  c-2.29,0-4.147-1.857-4.147-4.147c0-11.862-9.65-21.512-21.512-21.512c-2.29,0-4.147-1.857-4.147-4.147s1.857-4.147,4.147-4.147  c16.435,0,29.806,13.371,29.806,29.806C70.5,51.291,68.644,53.148,66.353,53.148z" style="" fill="currentColor"></path></svg>